<svg width="380" height="320" fill="none" xmlns="http://www.w3.org/2000/svg"><g clip-path="url('#clip0_203_1002')"><path d="M199.091 69.861c4.346-.234 8.189 2.432 10.825 5.68 1.711 2.172 2.501 4.896 3.096 7.523-3.07-4.477-4.548-7.019-9.502-9.77 3.627 3.995 3.175 9.072-.077 13.184-1.783 1.9-4.554 3.378-6.848 4.354.256-.282.516-.542.777-.813-4.713.038-6.437-5.028-7.137-8.925a7.618 7.618 0 0 1 .497-3.993c.332-.694.6-1.208.68-1.934-1.945 1.606-2.937 3.754-3.686 6.08-.165-3.247.75-6.154 3.199-8.435 2.35-1.669 5.207-3.13 8.162-2.957l.014.006Zm-2.084 8.473c2.505-.833.809-4.175-.042-5.759-1.225.401-2.367.918-3.542 1.408-.476 1.46 2.111 4.348 3.584 4.364v-.013Zm-4.447-3.764c.084-.06.17-.116.256-.168a1.29 1.29 0 0 1 .08-.2l-.269.127c-.015.058-.052.183-.067.24Z" fill="#000"/><path d="M212.95 84.4c-2.325 2.836-5.333 5.101-8.443 7.013-3.883 2.393-8.412.269-11.932-1.802.691.113 1.408.234 2.097.355 2.828.584 6.007.933 8.585-.635 3.145-1.806 6.38-3.45 9.692-4.927l.001-.004Z" fill="#000"/><path d="M188.698 80.171c.97 4.803 3.05 8.024 7.835 9.638 1.99.845 1.007.555-.444.507-5.795.037-9.207-4.656-7.391-10.145Zm5.873 8.774.073.037-.073-.037Z" fill="#000"/><path d="M189.482 76.463c.017 1.99.19 4.002-.172 5.97-.912-1.892-1.211-4.223.172-5.97ZM209.121 77.025c3.088 2.75 1.077 7.734-1.811 9.39 1.372-2.868 2.492-6.21 1.812-9.394l-.001.004ZM202.733 62.344c2.853.95 5.545 3.111 6.657 5.949-2.815-2.478-6.575-4.29-10.394-3.99-4.915.29-6.252 1.49-9.007 5.348.695-1.707 1.24-3.563 2.533-4.927 2.647-2.456 6.755-3.296 10.213-2.383l-.002.003Zm-9.229 3.342-.025.018.025-.018Zm12.244.167.056.027-.056-.027ZM231.932 96.251c-2.35.633-1.057 3.566.169 4.731 4.049 2.299 5.593 2.253 7.522 7.143.229.985-.854 1.774-1.74 1.33-1.498-.784-2.072-2.572-2.794-3.974-1.519-1.282-3.626-1.872-4.761-3.581-1.229-1.8-1.53-6.016 1.604-5.649Z" fill="#000"/><path d="M230.639 100.725c2.627 2.19 5.18 3.466 5.77 7.214-1.823-2.466-5-4.096-5.77-7.214ZM271.804 87.681c1.094 1.325 2.216 2.815 2.341 4.586.072-.072.141-.156.216-.22-.335.588-.151 1.324-.441 1.949-.376 1.235-1.389 2.16-1.548 3.466-.492 1.782-.259 3.853-1.24 5.457-.703.996-2.329.821-2.823-.304-.912-1.49-.523-3.378.314-4.817 2.836-4.029 5.317-4.124 3.288-9.755v.02c-.036-.127-.086-.26-.114-.382h.007ZM276.435 130.575c-4.222 3.177-9.775 3.778-14.895 4.205-6.904.78-13.943.659-20.742 2.201-3.061.738-6.155 1.408-9.263 1.899-2.045-.008-4.106-.25-6.138-.422a60.324 60.324 0 0 1 6.016-1.046c2.347-.683 4.68-1.395 7.08-1.888 5.93-1.569 12.069-1.816 18.146-2.418 2.917-.265 5.803-.802 8.725-1.035 2.426-.14 4.83-.473 7.235-.815 1.278-.229 2.624-.184 3.838-.675l-.002-.006Z" fill="#000"/><path d="M237.071 136.745c-1.137 2.325.123 5.266-1.318 7.501-1.113 1.103-2.674-.029-3.559-.878-1.595-1.46-1.666-3.801-2.647-5.639 1.842 1.334 2.627 3.756 4.82 4.637.774-1.912.771-4.433 2.704-5.621Zm-2.286 5.762-.047.009a.389.389 0 0 0 .047-.009ZM282.779 129.436c-.656 2.046-.64 4.292-1.689 6.219-.544 1.111-1.978 2.697-3.236 1.619-.718-.932-.777-2.252-1.105-3.356-.296-1.164-.389-2.386-.131-3.561.577 1.662 1.586 3.115 2.294 4.72 1.579-1.667 2.261-4.019 3.866-5.641h.001Z" fill="#000"/><path d="M317.672 112.345c-1.332 2.624-2.972 5.169-5.524 6.757-4.909 3.748-10.719 5.835-16.565 7.627-5.15 1.616-10.285 3.508-15.728 3.787-5.375-.183-3.88-.038.077-1.315 9.492-3.476 19.843-4.985 28.568-10.311 1.653-.986 3.482-1.668 5.047-2.79 1.52-1.08 2.768-2.495 4.128-3.748l-.003-.007Z" fill="#000"/><path d="M306.422 89.986c.63 1.64 2.06 2.639 3.377 3.704a26.894 26.894 0 0 1 4.082 4.13c2.673 3.552 6.415 10.478 3.082 14.527-.319.401-.637.803-.986 1.185.327-.845.734-1.689.953-2.579.572-4.102-3.334-9.365-5.595-12.644-1.752-2.656-4.86-4.914-4.913-8.323ZM292.761 55.481c-.362-.097-.771-.226-1.151-.33.381.108.767.218 1.151.33ZM274.271 68.04Z" fill="#000"/><path d="M285.837 52.524c2.621-.128 4.948 1.478 6.928 2.956-1.829-.491-3.714-1.206-5.55-1.084 2.411.786 5.692 3.892 6.474 6.36 1.049 3.9.213 9.133-3.834 11.059-.694.308-1.642.342-2.428.374a3.469 3.469 0 0 1-1.795.496c-2.329-.082-4.326-1.895-5.569-3.8-1.9-2.79-2.366-6.136-1.175-9.26-1.951 2.584-3.759 5.29-4.615 8.413-.792-6.253 4.598-15.78 11.567-15.518l-.003.004Zm1.105 9.467c.501-2.036-1.9-5.975-3.995-6.23a38.172 38.172 0 0 0-2.732 2.384c-.525 3.813 2.155.05 3.781 1.37.994.8 1.712 1.945 2.946 2.476Z" fill="#000"/><path d="M274.665 68.893c4.26 3.933 10.677 4.99 16.175 3.464l-.141.038c1.662-.445 3.143-1.363 4.654-2.145-.962 1.136-1.949 2.286-3.22 3.087-2.977 1.873-6.811 2.756-10.228 1.689-3.061-1.042-6.113-2.956-7.238-6.126l-.002-.007Zm2.478 1.879.042.024-.042-.024Z" fill="#000"/><path d="M292.464 55.504c4.176 2.842 6.692 9.432 3.613 13.883-1.216 1.689-.963 1.333-.518-.385 1.064-3.668-1.589-10.01-3.096-13.498h.001ZM277.301 62.292a50.744 50.744 0 0 0 2.634 9.785c-2.985-2.675-4.343-5.938-2.634-9.785Zm1.23 5.659.028.11-.028-.11ZM284.987 48.077c.834.418 1.646.878 2.433 1.378-1.819-.232-3.702-.781-5.53-.281-2.909.977-5.295 3.258-6.859 5.853-.423.653-.794 1.347-1.192 2.004.029-1.83.36-3.719 1.28-5.325 1.961-3.294 6.204-5.556 9.868-3.633v.004Z" fill="#000"/><path d="M287.121 48.854c1.959.985 3.286 2.763 4.191 4.713a10.065 10.065 0 0 1-4.191-4.713Z" fill="#000"/><path d="M284.458 43.449c4.1 2.23 8.022 5.157 10.855 8.903 2.469 3.275 3.106 7.41 3.103 11.412-.611-1.212-1.135-2.486-1.671-3.739-2.861-6.29-7.301-11.844-12.287-16.576ZM273.326 21.845c5.243 1.186 10.433 2.91 15.092 5.63 3.551 2.37 7.214 4.63 10.475 7.394 5.506 4.83 10.312 10.416 14.443 16.458 1.897 2.685 3.812 5.388 5.111 8.424l-.024-.053a36.245 36.245 0 0 1 3.966 16.48c-2.459-5.484-4.005-11.319-6.509-16.782-1.653-3.278-3.861-6.223-5.929-9.245-3.726-5.306-8.162-10.095-13.034-14.359-2.666-2.18-5.605-3.996-8.42-5.976-4.85-3.01-10.187-5.191-15.171-7.959v-.012ZM297.975 70.944c-.954 3.482-3.096 5.49-6.731 5.837 2.457-1.699 4.447-3.941 6.731-5.837ZM322.072 76.698a19.858 19.858 0 0 1 2.296 15.386c-1.143 5.402-2.252 10.861-4.29 16.009v-.016a95.85 95.85 0 0 1-2.585 6.029c.863-7.27 2.865-14.329 4.147-21.522.96-5.25 1.239-10.601.422-15.886h.01ZM310.64 120.921c6.701.205 12.273 4.478 16.907 8.951 2.633 2.482 5.673 4.481 8.328 6.933a86.09 86.09 0 0 1 2.854 2.75 145.622 145.622 0 0 1-4.955-2.758c-3.292-1.667-6.368-3.709-8.997-6.311-2.55-2.287-5.428-4.165-8.406-5.845-2.771-1.566-5.781-2.609-8.757-3.702 1-.021 2.019-.034 3.026-.018ZM340.305 139.372c7.306 1.609 13.385 6.282 19.897 9.728 3.082 1.75 5.872 3.926 8.68 6.073 3.909 2.551 7.001 6.129 9.128 10.276.373.748.761 1.516.993 2.313a35.106 35.106 0 0 0-2.312-2.711c-3.179-3.605-6.982-6.498-10.836-9.326-4.242-3.493-9.155-5.974-14.006-8.494-4.285-2.29-8.287-5.059-12.45-7.557-2.124-1.081-.141-.422.911-.302h-.005Z" fill="#000"/><path d="M348.468 150.899c4.503 1.346 9.236 2.112 13.51 4.114 3.94 1.848 7.585 4.223 10.771 7.19.574.298 5.179 4.811 4.07 4.203-.66-.374-1.328-.732-1.993-1.099l.105.058c-4.877-2.184-8.989-5.672-13.723-8.11-2.993-1.61-6.353-2.327-9.61-3.203l.281.071-.343-.089.281.071-.405-.105.281.071c-.489-.124-.985-.254-1.469-.372 1.811 1.841 4.012 3.277 5.721 5.227 1.763 1.971 2.786 4.464 3.788 6.872-1.774-2.048-3.394-4.275-5.639-5.844-2.516-1.8-5.566-3.226-7.122-6.035-.755-1.218-.114-3.199 1.517-3.017l-.021-.003Zm1.874 2.828.234.061-.234-.061Zm.01 0 .076.02-.076-.02Zm.258.066h.021-.021ZM295.163 138.614c6.663.494 13.329 1.491 19.81 3.127 4.627 1.295 9.381 2.313 13.791 4.244 5.584 2.607 10.378 6.558 15.601 9.776 4.125 2.448 7.459 5.989 11.4 8.673l-.026-.014c.282.156.563.303.838.455-2.781-.179-5.238-1.674-7.608-3.017-8.692-5.274-16.238-12.893-26.228-15.697-3.606-1.042-7.203-2.112-10.845-3.028-4.118-.899-8.303-1.481-12.461-2.112-4.135-.518-8.304-.396-12.455-.612-2.304-.089-4.519-.774-6.641-1.612 4.951.682 9.872-.502 14.829-.176l-.005-.007ZM337.693 139.246c2.451 4.475-.016 7.202-4.732 5.319.313-.067.643-.133.962-.197 3.8-.392 3.42-1.943 3.77-5.122Zm-.515 3.508c0 .014-.012.03-.019.044l.019-.044Zm-1.473 1.228-.038.014.038-.014ZM278.006 136.881c1.444 7.661 4.697 13.714-1.126 20.505.264-1.761.726-3.487.985-5.249.165-5.068-.956-10.231.141-15.256ZM276.418 139.304c-1.566 5.137-3.078 10.302-5.066 15.292-.571-5.506.742-11.535 5.066-15.292Z" fill="#000"/><path d="M270.769 153.071c1.883.939 2.906 3.049 3.317 5.03-1.014-.729-3.739-4.405-4.868-3.446-.903.438-.966 1.529-.976 2.414-1.408-1.847.17-4.747 2.533-3.998h-.006ZM265.202 152.784c1.528.949 2.37 2.644 2.986 4.28-1.266-.872-2.385-1.984-3.532-3.017-.767.563-.739 1.638-1.006 2.472-.239-.762-.498-1.584-.346-2.393.152-.81 1.002-1.77 1.898-1.339v-.003Zm-.704 1.167.068.021a.268.268 0 0 0-.068-.021ZM262.158 154.879c.704.79 1.098 1.788 1.435 2.774-.703-.534-1.386-1.126-2.089-1.689-.817.801-1.719 2.051-2.999 1.304-.423-.141-.845-.8-1.302-.458-.282.303-.446.704-.638 1.048a3.566 3.566 0 0 1 .103-1.424c.473-1.134 1.725-.499 2.59-.395.717-.693 1.849-2.099 2.9-1.164v.004Zm-.574 1.032h.06-.06Zm-4.156.792a.711.711 0 0 0-.063.014l.063-.014ZM255.752 154.717c.722.148.602 1.108.668 1.674-.228-.282-.444-.596-.674-.883-.703 1.137-.933 2.534-1.491 3.76-.25-1.465-.423-4.241 1.497-4.551ZM252.252 156.324c1.109.801 1.578 2.253 2.094 3.466a26.99 26.99 0 0 1-2.406-1.94 8.56 8.56 0 0 0-.563 1.501l.05-.172a16.043 16.043 0 0 1-1.458 3.476c-.012-.549 0-1.118.024-1.672.085-1.571-.166-5.098 2.252-4.661l.007.002Zm-.59 1.319.05.015a.288.288 0 0 0-.05-.015Zm.423.023h-.013.013ZM239.616 146.445c1.44.535 2.447 1.908 3.68 2.806 2.582 2.265 5.1 4.855 6.123 8.211-2.84-3.076-6.42-5.321-9.613-8.001-.579 3.021-.071 6.155.281 9.175-1.33-2.558-5.618-11.749-.464-12.191h-.007Z" fill="#000"/><path d="M238.949 156.219c1.621 2.072 2.071 4.73 2.577 7.237-1.889-1.941-2.639-4.581-2.577-7.237Zm2.297 5.879c0 .022.009.045.015.066 0-.021-.01-.044-.015-.066ZM272.126 141.779c-.391 4.504-3.808 8.322-7.881 10.004-4.312 1.763-9.039 1.322-13.566 1.83a89.958 89.958 0 0 1-3.479.423c1.407-.534 2.843-1.073 4.279-1.549 8.533-2.123 15.704-2.024 20.654-10.698l-.007-.01ZM295.099 148.233c-4.245 6.126-5.645 13.879-10.675 19.509-1.724 2.002-4.058 3.29-6.119 4.899-2.796 2.424-6.15 3.897-9.559 5.228-5.817 2.75-12.138 5.257-18.687 4.742-3.236-.229-6.286-1.69-9.541-1.591a8.77 8.77 0 0 1 .885-.256c2.447-.442 4.955.019 7.424.045 2.151.062 4.305-.141 6.434-.44 5.183-.784 9.871-3.136 14.644-5.159 2.863-.956 5.366-2.621 7.698-4.504 2.392-1.763 4.997-3.379 6.595-5.975 3.754-5.737 4.575-12.562 10.901-16.499v.001ZM248.88 180.81h.093-.093Z" fill="#000"/><path d="M270.481 160.053a21.084 21.084 0 0 1 6.849 1.086c-.422.043-.844.074-1.266.112-5.134.6-10.227 1.573-15.351 2.265-3.192.493-6.305 1.36-9.441 2.112-2.533.671-5.149 1.085-7.591 2.061-.648.29-1.287.64-1.93.926 2.955-2.608 6.936-3.542 10.529-4.949 5.892-1.856 11.975-3.683 18.206-3.613h-.005ZM196.747 143.127c-2.393 5.115-6.502 9.081-10.461 12.988-3.645 3.82-7.177 7.742-10.695 11.684-3.621 3.941-6.444 8.484-9.578 12.799-4.901 6.395-9.228 13.174-13.382 20.07-2.674 4.381-2.318 3.959-.876-.644 3.146-8.869 9.683-15.893 14.885-23.568 3.699-5.771 8.24-10.884 12.743-16.025 2.725-3.097 5.324-6.308 8.223-9.242 2.858-2.895 6.118-5.357 9.148-8.056l-.007-.006ZM235.087 176.101c.132 2.716-1.244 5.24-2.488 7.568-1.901 3.539-5.138 6.009-7.865 8.868-1.779 1.764-3.51 3.586-5.475 5.15-1.814 1.436-3.822 2.634-5.453 4.292-2.554 2.534-5.092 5.068-7.65 7.601-2.497 2.752-4.695 5.81-7.79 7.947-1.456 1.126-2.994 2.187-4.741 2.815-1.126.407-2.306.697-3.386 1.222-.919.47-1.579 1.275-2.216 2.065-.932 1.043-2.173 1.778-3.321 2.545a113.74 113.74 0 0 0 1.829-2.503c.585-.962.92-2.062 1.655-2.937 1.357-1.64 3.518-2.147 5.328-3.12 1.984-1.058 3.766-2.455 5.524-3.849l-.241.216c2.111-1.796 3.731-4.063 5.65-6.045 3.049-2.904 5.953-5.963 9.073-8.789 1.773-1.507 3.769-2.727 5.507-4.28 2.559-2.346 4.937-4.882 7.339-7.386a50.052 50.052 0 0 0 5.66-6.523c1.111-1.549 2.459-3.02 3.065-4.855l-.004-.002Z" fill="#000"/><path d="M189.619 221.902c-4.43 6.85-11.54 11.046-18.014 15.704-4.469 3.39-8.998 7.016-14.273 9.052-3.187.985-6.579.792-9.87.642h.018c-1.423-.012 4.689-1.072 5.366-1.267 2.739-.53 5.287-1.661 7.629-3.161 4.717-2.735 8.845-6.288 13.188-9.552a182.858 182.858 0 0 1 15.95-11.415l.006-.003Z" fill="#000"/><path d="M151.367 203.347c-1.035 7.495-4.86 14.284-6.139 21.727-.75 4.286-.504 8.665-.281 12.988.202 3.12.077 6.317 1.221 9.281.446 1.367.97 2.72 1.408 4.083a39.681 39.681 0 0 1-1.957-3.151c-2.55-4.407-2.351-9.671-2.721-14.596-.576-7.85.947-15.817 4.203-22.972 1.267-2.534 2.901-4.887 4.271-7.358l-.005-.002ZM160.725 198.23c1.961 2.996 8.703-.502 12.307.784 3.137.755 5.76 3.269 6.444 6.449.76 2.7-.011 5.912 2.044 8.141 1.034 1.11 2.412 1.796 3.677 2.605-1.655-.363-3.421-.67-4.821-1.703-3.8-2.568-1.926-8.011-4.685-11.204-3.64-4.471-13.312.269-14.966-5.068v-.004ZM161.747 214.866c.291.141.373.463.446.753-.119-.094-.242-.208-.374-.298l.029.02a.245.245 0 0 0-.156-.066c-.14 1.4.182 2.873.266 4.287-1.044-1.055-1.548-2.825-.957-4.223.124-.262.422-.623.746-.467v-.006Zm-.035.399h.015-.015ZM239.7 160.781c-.844 4.48-1.589 8.983-2.533 13.442-.584 2.153-1.407 4.242-2.26 6.294.007-1.165.048-2.33.114-3.494.259-6.536.388-10.821 4.679-16.242ZM201.434 136.23c3.208.084 6.377.704 9.58.903 3.209.231 6.444.217 9.633.627-3.699 1.035-7.48 2.031-11.353 1.817-5.936-.117-12.135-3.578-16.295 2.604.493-3.296 4.532-6.306 8.435-5.95v-.001ZM205.531 94.593c-2.366.867-4.294 2.556-6.31 4.023-2.252 1.796-4.684 3.429-6.693 5.508-2.182 2.721-3.416 6.053-4.581 9.308-1.515 3.974-1.748 8.242-1.337 12.441.511 4.746 1.023 9.494 1.584 14.233.02.192.053.385.068.564-1.951-3.755-3.088-7.895-3.819-12.046-.476-4.285-.715-8.691.368-12.906 1.291-4.666 2.923-9.453 5.9-13.328 3.377-3.732 9.679-7.83 14.82-7.804v.007ZM218.761 68.08a1.333 1.333 0 0 0 .011.197c.009.124.017.248.024.373v-.032l.038.615v-.063c.044 2.339.263 4.672.656 6.978.422 1.854-.974 4.212-2.846 2.506-2.429-2.025-2.392-5.49-1.484-8.257.439 1.852.756 3.808 1.901 5.38-.141-2.674.784-5.236 1.704-7.7l-.004.003ZM134.529 98.351c-.199-.207-.423-.492-.634-.726l.634.726ZM135.077 74.835c2.19.747 3.309 3.047 4.785 4.679.449.539.933 1.064 1.363 1.612-.915-.33-1.83-.67-2.659-1.184-5.139-3.379-2.439-4.505-8.683-1.304 1.34-1.548 2.836-4.168 5.197-3.8l-.003-.003Zm-2.41 2.432-.048.025.048-.025ZM250.824 17.287c7.036.156 14.301.11 20.856 3.002-6.394.062-12.807.152-19.182-.433-9.913-.915-19.472 2.463-29.291 3.075-8.866 1.067-17.662 2.695-26.435 4.347-5.811 1.305-11.367 3.406-16.888 5.61-5.381 2.183-10.591 4.76-15.668 7.575-2.883 1.582-5.551 3.644-7.684 6.153-2.013 2.444-3.675 5.145-5.489 7.73-1.829 2.615-3.674 5.21-5.297 7.963-.664 1.126-1.363 2.238-2.052 3.354a43.123 43.123 0 0 1 1.736-6.041c1.238-3.224 3.096-6.154 5.066-8.976 2.008-2.956 3.963-6.053 6.755-8.34 2.192-1.992 4.702-3.55 7.363-4.836 3.683-2.083 7.522-3.849 11.374-5.593 6.403-2.72 12.933-5.162 19.702-6.814a371.333 371.333 0 0 1 27.127-4.523c9.398-.593 18.537-3.617 28.005-3.253h.002ZM232.358 83.76c1.009 3.399-2.69 5.349-5.426 6.082a30.21 30.21 0 0 1 2.937-2.868c1.112-.844 2.088-1.85 2.489-3.215ZM261.81 77.827c3.015.9 5.784 2.454 8.251 4.382-3.245-.223-6.332-1.723-8.251-4.382ZM268.382 60.918c1.05 1.408 2.111 2.842 2.921 4.406a32.762 32.762 0 0 0 2.427 4.695c-3.41-1.651-5.136-5.462-5.348-9.101ZM304.174 147.436c-.288 6.545-2.612 12.731-4.747 18.855-2.156 6.335-4.634 12.566-7.126 18.781-4.423 10.298-9.395 20.394-14.809 30.203-4.171 6.847-8.703 13.482-13.355 20.01-3.716 5.374-7.408 10.76-11.338 15.983-2.339 3.256-4.666 6.537-7.56 9.33-3.953 3.892-8.263 7.388-12.525 10.928-3.007 2.534-6.14 4.973-8.636 8.037-4.511 5.301-9.051 10.949-15.234 14.347 2.924-3.113 5.391-6.6 8.134-9.864 2.709-2.901 5.079-6.104 7.881-8.916 6.051-5.611 12.878-10.364 18.749-16.189 3.55-3.399 6.184-7.573 9.117-11.487 4.866-6.558 9.51-13.278 14.243-19.933 4.571-6.669 9.253-13.311 12.731-20.638 5.337-10.377 10.325-20.938 14.102-31.995 2.038-5.431 3.518-11.051 5.421-16.528 1.386-3.754 3.262-7.31 4.958-10.921l-.006-.003ZM223.788 268.774c-2.366 4.712-5.173 9.208-8.53 13.279l.224-.282c-.757.951-1.516 1.9-2.276 2.848l.121-.152c-5.43 6.52-10.786 13.232-17.169 18.85-6.529 5.323-13.617 10.03-20.96 14.156-8.095 4.323-5.329 2.654-.121-1.667 6.837-5.349 14.56-9.487 20.98-15.374 7.203-6.991 13.26-15.03 19.291-23.023l-.228.281c2.553-3.277 5.541-6.213 8.672-8.922l-.004.006ZM35.101 138.43c.524-.18 1.159-.354 1.721-.52-.599.172-1.169.344-1.72.52ZM54.186 133.371ZM297.947 112.678c3.884.595 7.59 1.9 11.244 3.299 4.1 1.497 8.182 3.077 12.071 5.068 6.382 3.228 12.233 7.418 17.615 12.106 3.452 2.855 6.782 5.876 9.67 9.311-5.053-3.89-9.617-8.411-14.712-12.261l.046.036c-5.874-4.516-12.332-8.286-19.231-11.007-5.515-2.313-11.369-3.838-16.703-6.561v.009Zm16.757 6.582.05.021-.05-.021Zm19.231 11.025-.054-.039.054.039Z" fill="#000"/><path d="M301.446 108.452c9.991 2.197 19.28 6.826 28.051 11.973 7.068 4.049 13.244 9.383 19.023 15.081 2.197 2.199 4.572 4.267 6.366 6.823.43.583.807 1.203 1.126 1.853-.226-.282-.47-.542-.703-.808-5.566-5.648-11.229-11.272-17.451-16.189l.014.011-.1-.076.041.031c-7.615-5.62-16.028-10.183-24.76-13.816l.032.013-.14-.055.024.01c-4.699-1.971-9.711-3.09-14.313-5.3.928.122 1.872.281 2.798.453l-.008-.004Zm36.388 18.723h.007l-.045-.033.038.028v.005Zm-24.839-13.861.041.017-.079-.033.038.016ZM301.568 102.47c5.715 1.726 11.54 3.087 17.22 4.927a95.958 95.958 0 0 1 30.976 16.762l-.083-.064c4.032 3.422 8.088 6.912 11.386 11.061a79.648 79.648 0 0 1-6.323-5.604 92.28 92.28 0 0 0-29.384-18.682c-5.946-2.456-12.189-4.02-18.384-5.693-3.85-1.026-7.695-2.125-11.233-4.002 1.964.324 3.909.758 5.825 1.3v-.005ZM299.945 96.543c10.517.347 20.992 1.572 31.349 3.4 7.012 1.5 14.13 3.037 20.688 6.02a97.269 97.269 0 0 1-3.931-.924c-10.539-3.287-21.342-5.236-32.316-6.35-8.742-.944-17.514-1.143-26.297-.913 3.392-1.096 6.961-1.362 10.512-1.233h-.005ZM335.68 76.403c-5.703 3.519-12.19 5.38-18.535 7.366-7.579 2.264-15.087 5.133-22.979 6.072-3.44.29-3.261.3-.05-.696 9.885-2.393 19.628-5.321 29.331-8.38 4.098-1.395 8.108-3.07 12.233-4.364v.002ZM313.229 52.099c7.471.533 14.943 1.222 22.33 2.483 5.868 1.02 11.821 2.048 17.309 4.412-6.56-1.198-13.021-2.873-19.637-3.79h.021l.101.011c-7.1-.985-14.24-1.582-21.391-2.111a52.907 52.907 0 0 1-5.613-.93 44.868 44.868 0 0 1 6.877-.084l.003.009Zm11.885 2.086.114.015-.114-.015ZM290.267 8.179c-1.3 5.018-3.744 9.606-5.81 14.33-1.89 4.3-3.237 8.825-5.331 13.04.623-4.775 2.515-9.25 4.41-13.645 2.156-4.613 4.132-9.346 6.731-13.725Zm-6.051 14.872c0 .016-.013.03-.018.045 0-.015.012-.03.018-.045ZM257.759 0c1.523 3.697 2.357 7.602 3.431 11.44 2.039 6.72 3.487 14.094.672 20.813a31.12 31.12 0 0 1-.689 1.764c.141-.832.246-1.668.37-2.502 2.971-12.85-2.875-19.514-3.784-31.515Zm4.49 26.876v.038-.038ZM209.227 11.343c-2.856 13.213-2.884 21.872 2.092 34.645 1.156 3.554 1.885 5.082-.506.614-4.926-10.198-6.826-24.891-1.586-35.259Zm-1.631 20.767c0 .03.008.057.011.087 0-.03-.007-.058-.011-.087ZM183.556 26.016c4.251 3.047 7.749 6.964 11.44 10.635 3.079 3.105 6.219 6.202 8.753 9.77-3.488-2.654-6.437-5.9-9.531-8.985-3.62-3.74-7.6-7.192-10.662-11.42ZM153.951 59.651a44.213 44.213 0 0 1 7.965 2.35l-.141-.055c3.251 1.134 6.544 2.887 7.901 6.24-4.045-4.678-10.584-5.537-15.732-8.535h.007ZM203.244 104.679c3.758-.008 7.539.282 11.201 1.126-2.946.263-5.9.22-8.848.044-5.004-.141-10.025.025-14.988.704l.141-.019c-5.629.721-11.161 1.971-16.726 3.042-7.992 1.578-15.964 3.292-23.755 5.693-1.881.527-3.8.96-5.702 1.395 1.251-.528 2.502-1.057 3.78-1.52 7.816-2.726 15.921-4.52 24.015-6.208 10.178-2.141 20.422-4.485 30.886-4.257h-.004ZM198.993 110.898c-3.813 1.516-7.843 2.282-11.843 3.115-5.867 1.229-11.707 2.572-17.466 4.233-7.166 1.937-13.8 5.444-20.952 7.403a62.95 62.95 0 0 1-2.057.51c.508-.235 1.015-.473 1.524-.704 10.696-4.675 21.625-8.88 33.072-11.261 5.867-1.259 11.717-2.899 17.718-3.29l.004-.006ZM197.027 114.326a74.034 74.034 0 0 1-9.393 3.766c-5.847 2.371-11.644 4.862-17.366 7.522-10.158 4.527-19.765 10.124-29.567 15.344-3.8 1.748-4.768 2.341-.457-.433 11.66-6.978 23.691-13.337 36.121-18.838 6.701-2.883 13.399-6.225 20.662-7.361ZM208.194 117.521c-5.666 3.956-12.209 6.37-18.394 9.373-10.242 4.662-20.525 9.469-29.405 16.491l.087-.068c-5.144 4.097-10.126 8.532-14.331 13.602-2.928 4.013-5.398 8.346-8.434 12.284l-.022.031c-.317.418-.636.834-.957 1.248 1.889-3.863 5.356-8.78 8.04-12.843 9.122-11.644 21.496-20.604 34.735-27.026 5.874-2.872 11.821-5.594 17.732-8.396 3.581-1.714 7.146-3.54 10.953-4.696h-.004Zm-70.496 51.708.019-.026-.019.026ZM206.778 123.645c-4.337 3.758-9.519 6.294-14.355 9.326-4.328 2.558-8.373 5.559-12.243 8.773-8.181 6.996-16.215 14.261-23.208 22.469-6.215 7.237-10.894 15.742-13.479 24.935-1.395 4.953-2.418 10.008-4.112 14.872.605-4.443 1.845-8.791 2.99-13.125 3.457-14.684 12.615-26.994 23.39-37.228 8.597-8.406 17.504-16.7 27.952-22.77 4.293-2.515 8.443-5.342 13.056-7.252h.009ZM216.321 125.589c-3.237 3.128-7.086 5.49-10.625 8.242-5.523 4.082-10.555 8.764-15.464 13.563-10.695 10.814-19.76 23.1-30.027 34.304-3.208 3.325-2.393 2.369-.141-.652 3.995-5.012 8.325-9.749 12.373-14.72 5.729-6.909 11.341-13.946 17.723-20.271 4.873-4.866 9.974-9.517 15.517-13.609 3.346-2.575 6.809-5.068 10.641-6.856l.003-.001ZM289.319 114.51c8.921.341 16.916 5.35 23.047 11.555.726.761 1.45 1.548 2.134 2.335-2.484-1.648-4.801-3.519-7.116-5.389l.113.086c-2.855-2.193-5.898-4.179-9.257-5.511-2.932-1.136-6.012-1.895-8.921-3.076ZM281.788 168.345c3.325.94 6.463 2.456 9.03 4.799a41.533 41.533 0 0 1 3.888 4.082 92.271 92.271 0 0 1-5.066-3.636l.049.038c-2.484-1.981-5.293-3.507-7.908-5.287l.007.004Zm7.977 5.339-.069-.052.069.052ZM273 175.037a18.017 18.017 0 0 1 8.928 12.262c-2.336-4.535-5.438-8.568-8.928-12.262ZM206.74 207.863c2.907 4.323 4.696 9.25 7.177 13.802 1.876 3.556 4.419 6.693 6.474 10.136-3.738-3.328-6.555-7.537-8.709-12.036-1.902-3.856-3.846-7.742-4.955-11.905l.013.003ZM136.337 67.727c2.746.16 10.555 2.285 10.299 5.724-.537-2.037-4.695-2.405-6.492-2.968-2.701-.591-5.621-1.226-8.303-.228-1.358.645-2.657 1.66-3.323 3.035-.515 1.61.207 3.367-.364 4.983-1.378 3.114-3.104 2.774-3.144 6.96-1.267-4.015.194-4.278 1.141-7.683.132-1.727-.383-3.56.422-5.188 1.87-3.393 6.035-4.94 9.767-4.635h-.003Zm.573 2.128.073.009-.073-.009ZM126.598 85.882c.395 3.164 4.242 3.533 6.419 5.068 3.183 2.052-.271 4.406 1.217 6.334 1.233 1.488 3.393 1.68 5.188 1.408a4.498 4.498 0 0 1 1.812-.048c-.899.155-1.663.667-2.503.994-2.598 1.108-6.297.356-7.259-2.575-.532-1.386.35-2.752.449-4.082-2.145-1.899-6.496-3.491-5.318-7.095l-.005-.004Zm13.753 13.007h-.01.01ZM146.16 84.083c1.562.664-.099.238-.662.648-1.67.92-3.288 2.015-5.235 2.228 1.751-1.235 3.507-3.51 5.897-2.876Zm-.681.656c-.021 0-.041.017-.062.025l.062-.025ZM144.351 87.21c-.613.338-1.248.635-1.899.89l.098-.042c-.83.356-1.734.482-2.626.572 1.219-1.04 2.799-1.757 4.427-1.42ZM124.739 91.362c-2.006 7.602-6.378 11.956-12.481 16.521-8.793 6.731-16.86 11.363-27.814 13.69a72.273 72.273 0 0 1-3.849.812c2.05-1.039 4.124-2.079 6.22-3.039 4.383-2.122 9.052-3.642 13.228-6.179 8.823-5.654 17.115-12.445 23.714-20.627a.017.017 0 0 1 0 .01c.328-.392.654-.805.985-1.188h-.003ZM87.588 123.147c.704.036 1.431.078 2.134.14-.977.355-1.96.704-2.947 1.019-2.465.803-4.854 1.811-7.282 2.712-4.709 1.528-9.762.563-14.622.975 2.245-.935 4.559-1.79 6.964-2.23 5.273-.788 10.348-3.058 15.753-2.621v.005ZM72.213 129.214c-7.295 6.508-19.786 4.245-28.877 4.148-5.119-.141-10.236.125-15.351-.066-3.86-.242-7.66-.942-11.42-1.83a158.135 158.135 0 0 1-4.822-1.206c1.375-.024 2.754 0 4.13.031 4.518.033 9.007.675 13.51.754 4.722.055 9.436-.3 14.16-.241 5.513.164 11.024.299 16.532-.077 4.081-.066 8.254-.115 12.133-1.518l.005.005ZM3.56 132.043c4.61.444 9.027 1.916 13.477 3.115 3.863 1.001 7.856 1.312 11.777 2.009 2.239.361 4.38 1.232 6.01 2.844-.844-.282-1.713-.586-2.598-.738-3.177-.281-6.373.237-9.554-.119-4.852-.534-9.522-2.139-14.015-3.99a92.224 92.224 0 0 0-8.654-3.312c1.178 0 2.376.1 3.557.191Z" fill="#000"/><path d="M286.941 61.988c.501-2.036-1.9-5.974-3.996-6.23a38.378 38.378 0 0 0-2.731 2.384c-.525 3.813 2.154.05 3.781 1.37.994.8 1.711 1.945 2.946 2.476ZM197.005 78.338c2.505-.833.809-4.175-.043-5.759-1.224.401-2.367.918-3.542 1.408-.476 1.46 2.111 4.348 3.585 4.364v-.013Zm-4.448-3.764c.085-.06.171-.116.257-.168.02-.069.047-.136.08-.2l-.269.127-.068.24Z" fill="#fff"/></g><defs><clipPath id="clip0_203_1002"><path fill="#fff" transform="matrix(-1 0 0 1 379.003 0)" d="M0 0h379v320H0z"/></clipPath></defs></svg>