<svg width="394" height="288" fill="none" xmlns="http://www.w3.org/2000/svg"><g clip-path="url('#clip0_203_1095')"><path d="M125.401 93.636c-1.502 2.129-2.67 4.462-4.12 6.625-14.525-8.1-8.419 11.668-.966 4.059 5.445.256 4.849-6.936 5.086-10.683Zm-3.907 6.528-.052.04.052-.04Zm.098.024-.076.033.076-.033Zm-6.579 2.39.105.014-.105-.014ZM89.683 93.153c-.488 3.004 1.57 6.1-.246 8.781-.055-.811.079-1.687.14-2.478-4.275 4.514.762 7.685 3.1 1.995 1.278-2.972-1.64-5.838-2.993-8.294v-.004Zm.021 8.293Zm-.092 1.11.098.127a1.396 1.396 0 0 1-.098-.127ZM103.2 85.652a29.22 29.22 0 0 0-11.506 5.128c7.995.262 16.07-2.811 23.916-.41 6.377 2.138 1.991-.353-.618-2.366-3.479-2.173-7.739-3.202-11.792-2.352Zm-.818 4.376-.141.02.141-.02ZM90.245 105.859c2.7 3.555 6.51 10.226 11.708 7.145 3.817-2.108 7.668-4.286 11.264-6.747-18.787 1.578-8.158 6.778-22.972-.399v.001Zm8.752 3.998a2.426 2.426 0 0 1-.269.036l.269-.036Zm-.388.073.28.035a2.045 2.045 0 0 1-.28-.035ZM101.779 77.447c-4.827 3.734-9.541 7.882-12.949 12.97 5.84-2.53 11.409-6.447 12.949-12.97ZM88.375 92.075C82.07 98.54 77.909 103.6 75.869 112.676c5.368-5.833 11.392-12.488 12.506-20.601Z" fill="#000"/><path d="M77.861 110.616c-8.783 6.771-1.628 19.914 6.215 24.265 1.883.822 6.506 4.162 2.951.317-4.826-5.999-12.358-16.727-9.164-24.582h-.002Zm-.816 3.191c0 .031 0 .061-.011.092 0-.031.007-.061.011-.092ZM96.299 123.627c-3.709 1.331-5.97 6.535-6.574 10.226a67.184 67.184 0 0 0 5.05-5.517c.844-.674 1.185-3.006 2.358-2.671-.066-.025-.129-.053-.194-.079.844.492 1.584 1.168 2.33 1.757-.503-1.484-1.094-3.635-2.97-3.722v.006Zm.479 1.785-.079.059c.025-.02.052-.041.079-.059Zm.038.14c.038 0 .076.009.114.015l-.114-.015Zm-.316.119a1.322 1.322 0 0 1 0 0Zm-1.827 2.811.069-.089-.07.089Zm.108-.141-.04.054.15-.194-.11.14ZM99.362 127.993c10.793 9.996 23.316 19.159 38.52 19.948-12.624-6.909-24.028-17.275-38.52-19.948ZM138.824 147.1c5.743 9.926 19.654 9.015 29.087 5.595 5.854 3.019 10.149-2.798 4.151-4.289-10.931-1.248-22.948 4.746-33.233-1.306h-.005Zm32.67 3.43a1.11 1.11 0 0 1-.018.083c0-.028.012-.055.018-.083ZM91.677 140.115c12.492 6.123 12.489 18.291 30.027 18.304.354-.169-2.275-1.326-2.915-1.797-10.136-3.858-14.701-18.878-27.112-16.507ZM127.969 160.437c15.597 12.124 39.856 13.055 57.301 4.538-19.123.604-38.42-1.504-57.301-4.538ZM195.639 162.644c3.531 2.172 7.754 3.051 11.846 3.285a14.509 14.509 0 0 0-11.846-3.285ZM204.014 158.705c-1.248 0-5.882 2.33-2.926 1.916h-.018c3.994.104 8.056.63 12.004-.164-2.862-1.125-5.936-2.39-9.06-1.752ZM212.119 153.185c-2.056.703-7.193 4.794-1.941 2.786 3.813-.892 7.796-.676 11.625-1.546-3.026-1.155-6.463-2.323-9.684-1.242v.002ZM224.597 146.67c-1.967.291-3.7 1.438-4.9 2.965 2.76-.46 12.995-3.912 4.9-2.965ZM186.6 67.772c-7.224-.13-11.17 6.83-14.108 12.468a12.142 12.142 0 0 0 3.156-1.848 6.333 6.333 0 0 0 .632 3.03c-.963-.245-1.943-.458-2.907-.76 3.118 3.502 8.58 6.756 13.429 5.613-.12.164-.235.333-.353.503 4.453-2.58 11.944-6.51 10.762-12.716-.82 1.78-1.874 3.437-2.7 5.21l-.295.16c1.01-2.43-.307-5.11-1.175-7.45 1.881.52 3.653 1.23 5.56 1.697-3.292-3.03-7.447-5.904-12.001-5.904v-.003Zm.355 7.706c-1.505-.922-2.614-1.737-3.719-2.872a12.375 12.375 0 0 1 7.306-1.09c.251.348.452.729.598 1.132-2.389-1.878-4.189.551-4.184 2.83h-.001ZM181.535 56.498a17.794 17.794 0 0 0-7.257 7.23c9.206-4.002 19.98-8.825 29.902-4.751-5.917-6.055-15.488-6.622-22.645-2.478ZM203.002 59.55a33.61 33.61 0 0 0-4.593.609 25.074 25.074 0 0 0 8.137 2.302c-.122-.01-.243-.025-.364-.038 2.788.32 5.621.173 8.386-.172-3.664-1.531-7.512-3.113-11.566-2.7ZM202.923 55.253c2.951 3.055 7.421 3.634 11.266 2.04a73.472 73.472 0 0 0-11.266-2.04ZM111.146 58.802c-.384 7.102 4.68 7.831-.718 14.988 8.93-4.399 4.99-8.817.718-14.988Z" fill="#000"/><path d="M111.85 62.435c-1.654 1.23-2.752 3.597-2.468 5.656.294 1.778 2.301 2.358 2.937 3.895v-.012c.382.043.093-1.503-.239-1.933l.024.043c-1.579-2.138-.808-4.779-.393-7.169v.01c.043-.163.122-.338.14-.493l-.001.003Zm-.141.497c0 .01 0 .02-.01.031 0-.011 0-.02.01-.03Zm.506 8.786v.008-.008Z" fill="#000"/><path d="M112.024 64.401c-1.546.872-.409 2.564.582 2.023h.01a3.75 3.75 0 0 1-.481-.38c.014.014.025.029.038.043a.875.875 0 0 1-.204-.262c.009.014.016.028.023.042.327-1.152 2.192-.806 3.138-.96-.911-.601-2.079-1.154-3.106-.509v.003Zm-.07 1.406v.015-.015Z" fill="#000"/><path d="M111.445 65.693c-3.232.281-2.67 5.38.544 4.978 3.232-.282 2.67-5.381-.544-4.978ZM116.481 58.295c-1.354 2.703-1.826 5.763-1.196 8.735 1.511-2.616 1.643-5.813 1.196-8.735ZM119.255 43.759c-4.096 3.525-7.193 8.418-7.009 13.986 3.243-4.117 5.23-9.108 7.009-13.986ZM134.355 25.12c-4.02 7.642-12.586 12.628-15.045 21.009 6.92-5.352 14.482-11.506 15.045-21.008ZM109.562 60.984c-5.199 4.515-5.621 11.643-8.29 17.571 5.373-4.068 7.073-11.27 8.29-17.571ZM124.805 101.039c-2.696 3.033-3.869 3.76-7.957 2.609 3.502 3.732 7.435 2.582 7.957-2.609ZM144.652 13.64c-6.572.822-8.089 7.542-9.405 12.931 4.037-3.629 5.533-9.172 9.405-12.932ZM148.682 15.12c-3.289 1.33-5.861 3.896-7.599 6.93 3.232-1.354 6.065-3.755 7.599-6.93ZM155.243 14.449a10.555 10.555 0 0 0-5.116 4.358c2.183-.76 4.103-2.278 5.116-4.358ZM162.012 12.709a10.777 10.777 0 0 0-5.794 4.892c2.402-.945 4.573-2.602 5.794-4.892ZM167.395 11.313c-3.112 1.608-5.446 4.326-7.147 7.324 3.262-1.385 5.885-4.018 7.147-7.324Z" fill="#000"/><path d="M168.268 10.32c-3.207 2.057-6.085 4.695-8.103 7.933 3.699-1.375 6.974-4.049 8.103-7.934ZM173.88 12.065c-2.601.631-4.759 2.35-6.183 4.595 2.458-.825 4.726-2.429 6.183-4.595ZM179.661 7.182c-1.362 2.53-1.967 5.414-3.245 7.971 2.951-1.51 4.021-4.879 3.245-7.971ZM187.854 5.52c-2.367 2.215-4.266 4.928-5.702 7.809 3.131-1.46 5.35-4.358 5.702-7.809ZM191.792 4.966a29.284 29.284 0 0 0-5.662 7.34c3.057-1.285 5.327-4.011 5.662-7.34ZM197.863 1.968c-2.91 3.248-5.339 6.954-7.462 10.734 4.32-1.915 7.363-5.955 7.462-10.734ZM211.853.294c-3.723.749-7.353 2.323-10.159 4.92a21.852 21.852 0 0 0-2.261 2.53c-.534.691.409 1.666 1.089 1.164 9.603-5.014 20.681-4.794 31.083-6.726-6.525-.892-13.139-2.952-19.752-1.89v.002ZM228.109 3.853c-3.027.852-6.013 1.999-8.729 3.568 9.858.843 19.822-.273 29.61-1.43-6.745-1.763-13.943-4.143-20.881-2.138ZM244.971 6.615a30.743 30.743 0 0 0-3.074.474c5.389 2.54 11.264 3.81 17.221 3.466h-.368c2.612.11 5.273.198 7.869.116-6.672-3.384-14.184-4.971-21.64-4.062l-.008.006Zm4.28 3.081-.191-.049.191.05Zm-.191-.049-.221-.053.221.053ZM261.182 11.425c4.823 3.233 10.68 4.511 16.413 4.563-4.861-3.255-10.493-5.3-16.413-4.563ZM276.482 17.422c6.281 7.111 15.552 8.92 24.538 9.906-7.193-5.301-15.781-8.386-24.538-9.906ZM277.468 28.982c-5.56 1.476-8.4 7.196-12.787 10.457 4.99-.602 8.666-4.639 13.446-5.566 18.527 3.712 19.673 17.609 11.627 32.17 9.601-6.694 15.115-24.405 3.669-32.023-4.647-2.959-10.282-6.009-15.956-5.038h.001Z" fill="#000"/><path d="M281.91 59.87c-3.574.508-6.949 2.278-9.293 5.016 2.108.532 18.306-7.19 9.293-5.017ZM289.966 62.203c-3.894-.086-7.488 1.485-11.05 2.811 3.934 1.479 7.878-.573 11.05-2.811ZM277.442 38.82c-4.146 2.687-9.241 3.126-13.542 5.542 5.023.497 11.654.087 13.542-5.543ZM264.068 46.608c-1.325.44-2.598 1.24-3.72 2.027 3.614.644 12.635-4.39 3.72-2.027ZM299.038 31.442c3.203 3.443 7.783 5.537 12.506 5.381-3.6-2.93-8.031-4.449-12.506-5.38Z" fill="#000"/><path d="M304.195 36.022c2.376 2.38 5.398 4.138 8.73 4.657a13.188 13.188 0 0 0-8.73-4.657Z" fill="#000"/><path d="M307.203 38.926c2.049 3.004 5.404 4.992 9.083 4.945-2.604-2.285-5.81-3.871-9.083-4.945ZM310.268 48.225c7.919 4.04 14.563 10.8 23.676 12.167-6.117-6.736-14.254-12.356-23.676-12.167ZM325.948 62.773c7.139 7.71 15.289 14.67 25.012 18.814-5.37-9.559-15.244-14.786-25.012-18.816v.002ZM339.095 76.74c2.016 3.936 5.885 6.5 10.193 7.235-2.636-3.268-6.361-5.305-10.054-7.169h.009c-.052-.02-.102-.073-.141-.074l-.007.008ZM344.315 83.178c1.686 2.925 4.497 5.124 7.932 5.342a24.052 24.052 0 0 0-7.932-5.342ZM347.724 89.459c3.561 6.466 9.946 10.703 17.014 12.468-4.259-5.88-10.87-8.996-17.014-12.468ZM351.626 98.244c3.783 8.179 9.633 16.389 19.098 18.039-5.802-6.57-12.094-12.749-19.098-18.039ZM297.134 69.557c1.471 5.518 6.744 8.82 12.268 8.82-4.01-3.041-8.198-5.894-12.268-8.82ZM303.135 79.813c3.84 4.174 9.338 6.326 14.991 5.692-4.577-2.76-9.653-4.998-14.991-5.692ZM260.131 53.8c3.644 3.716 8.871 4.94 13.872 3.739-4.327-2.049-9.115-3.269-13.872-3.738ZM365.89 120.33a91.448 91.448 0 0 0 19.591 20.782c-3.372-9.373-9.849-17.655-19.591-20.782ZM374.14 133.084c.422 6.045 4.223 10.917 9.156 14.137-1.862-5.351-5.304-10.044-9.156-14.137Z" fill="#000"/><path d="M374.142 140.344c3.477 8.26 9.528 15.041 16.182 20.885a33.189 33.189 0 0 0-16.182-20.885ZM381.391 159.602c2.295 8.027 6.604 15.322 11.431 22.037-.197-8.771-4.269-16.924-11.431-22.037ZM379.64 170.101c3.904 10.723 5.48 22.297 11.227 32.321.103-11.567-.702-25.218-11.227-32.321Z" fill="#000"/><path d="M384.642 188.859c-2.03 7.25 1.734 14.547 6.359 19.96-.645-7.094-3.555-13.534-6.359-19.96ZM386.642 203.365c-.666 4.33.818 8.969 4.471 11.562-1.226-3.925-2.248-8.046-4.471-11.562ZM385.89 208.367c-3.077 6.113-.694 11.927 4.82 15.502-2.026-5.047-3.935-10.133-4.82-15.502Z" fill="#000"/><path d="M384.141 217.376c-1.137 4.657-1.314 9.731.82 14.132 1.125 2.916 6.214 8.241 8.023 7.629 0 .007.012.017.019.025-4.496-6.466-5.723-14.652-8.862-21.788v.002ZM384.641 233.128c-1.799 6.964 1.356 13.82 6.711 18.274-1.116-4.254-2.479-8.434-4.262-12.457l.152.357c-.871-2.054-1.617-4.184-2.601-6.174ZM385.391 247.135c-1.03 6.542 1.553 12.933 6.904 16.86-1.754-5.784-3.901-11.598-6.904-16.86Z" fill="#000"/><path d="M386.642 255.388c-1.32 5.727.325 11.62 4.598 15.695-.815-5.371-2.157-10.816-4.598-15.695ZM121.992 165.375c-6.653 9.088-8.276 20.395-13.655 30.082 10.554-6.011 13.936-18.644 13.655-30.082ZM122.084 182.937c-4.778 6.156-7.497 13.538-10.037 20.804 6.59-4.87 10.222-12.651 10.037-20.804Z" fill="#000"/><path d="M117.441 197.854c-5.594 5.954-9.291 13.385-11.83 21.074 6.78-5.061 11.133-12.629 11.83-21.074Z" fill="#000"/><path d="M111.608 212.315c-4.952 7.536-7.939 16.181-13.053 23.595 9.117-3.928 13.954-13.946 13.053-23.595Zm-10.002 18.776-.084.155.084-.155ZM118.541 227.03c-10.617 10.121-18.247 22.572-26.839 34.311 13.538-6.725 23.915-19.381 26.839-34.311Z" fill="#000"/><path d="M110.647 247.546c-7.147 7.839-11.187 17.898-18.35 25.676 11.289-3.264 17.534-14.501 18.35-25.676Z" fill="#000"/><path d="M98.616 266.738c-5.036 6.979-9.172 14.554-14.614 21.261 10.224-3.796 14.353-10.521 14.614-21.261ZM169.479 84.036c2.092 3.222 5.304 5.414 8.638 7.208-.081-.04-.159-.083-.238-.125 1.037.586 2.097 1.133 3.148 1.697l-.339-.18c2.331 1.426 5.059 2.132 7.728 1.235-3.545-.703-5.62-3.74-8.469-5.652-3.202-2.006-6.995-2.821-10.468-4.183ZM195.961 92.61c-5.536 3.093-5.137 3.859.814 1.788 5.595-3.373 5.639-4.779-.814-1.788ZM282.922 136.092c-9.415 1.048-8.842 1.322-.031 3.384 5.262 1.01 10.645-.183 15.66-1.814-5.068-1.342-10.374-2.17-15.629-1.57ZM293.272 129.501c-6.745 1.383-7.232 2.738.172 2.059 6.306-1.106 6.268-2.108-.172-2.059ZM91.104 144.29c-28.478 18.616-39.69 58.326-51.3 88.707 10.162-21.404 16.96-44.585 30.427-64.296l-.067.097c6.164-8.808 13.414-16.879 20.937-24.508h.003Zm-20.797 24.3-.072.104.072-.104ZM80.225 145.696c-17.073 11.437-29.287 28.975-40.68 45.756 13.44-15.354 26.243-31.3 40.686-45.756h-.006ZM71.753 142.683c-12.527 8.076-24.43 17.899-33.102 30.116 2.115-1.991 4.338-3.961 6.464-5.979l-.014.013c8.785-8.153 18.287-15.588 26.656-24.15h-.004ZM74.393 128.958c-21.486 8.988-39.984 24.648-56.427 40.876 18.207-14.482 36.904-28.244 56.427-40.876ZM65.698 125.877c-12.777 1.424-30.884 14.553-41.374 22.245l.082-.07.082-.072-.022.021.017-.015-.19.16.044-.035-.013.011.021-.018c-2.29 1.948-4.593 3.885-6.873 5.846l.141-.122c-6.042 5.7-12.07 11.491-17.607 17.659 20.429-18.112 41.544-37.581 68.404-45.275 2.688-.388-1.645-.34-2.712-.335Zm2.691.338h-.021.021Zm-43.982 21.837.04-.034-.04.034ZM45.24 120.118a31.25 31.25 0 0 0-11.373 5.63 31.248 31.248 0 0 0 11.373-5.63ZM48.503 124.498c-9.772 2.2-18.818 6.502-27.76 10.887l.047-.024-.21.103.029-.014-.048.022.11-.052c-4.165 2.289-8.198 4.899-12.065 7.625 13.364-6.007 26.819-11.992 39.897-18.547Zm-26.937 12.665-.153.074.153-.074ZM146.947 128.287c45.436 12.815 82.638 41.681 117.698 72.216-32.22-29.43-73.446-65.414-117.698-72.216ZM171.523 120.762c24.451 14.238 48.396 29.097 69.384 48.298 4.165 3.573 3.922 3.425.291-.563-20.149-19.626-43.335-37.429-69.675-47.737v.002Z" fill="#000"/><path d="M183.958 124.98c14.133 3.807 27.506 10.014 40.427 16.811a3.862 3.862 0 0 1-.128-.07c20.919 11.313 37.192 29.048 55.645 43.699-27.141-25.6-57.175-56.086-95.944-60.444v.004Z" fill="#000"/><path d="M178.008 115.533c49.759 12.404 80.282 25.609 116.815 62.664-29.986-33.588-71.776-57.829-116.815-62.664ZM162.799 135.402c19.166 11.701 39.01 24.668 51.14 44.072l-.099-.164c4.438 6.325 19.781 45.694 9.647 17.571-9.658-27.743-33.233-51.326-60.688-61.48v.001Zm37.096 27.052.058.055-.058-.055Z" fill="#000"/><path d="M190.883 148.184c8.665 12.745 20.588 22.996 28.2 36.513a5.929 5.929 0 0 0-.122-.207c7.86 13.073 12.928 27.543 19.755 41.139-9.347-29.173-24.11-57.442-47.833-77.445ZM187.691 158.549c11.989 17.742 18.37 38.376 28.526 57.102-7.729-19.39-13.49-42.012-28.526-57.102ZM161.877 173.257c1.01 4.791 2.556 9.474 3.143 14.348.984 7.411-.392 14.868-.857 22.272 4.612-12.43 4.834-25.085-2.286-36.62ZM179.127 163.298c13.424 10.632 12.121 26.708 13.029 42.115 2.296-14.759 2.797-34.834-13.029-42.115Z" fill="#000"/><path d="M186.959 75.472c-1.505-.922-2.614-1.737-3.72-2.872a12.379 12.379 0 0 1 7.307-1.09c.251.348.451.73.598 1.133-2.389-1.878-4.189.55-4.184 2.83h-.001Z" fill="#fff"/></g><defs><clipPath id="clip0_203_1095"><path fill="#fff" transform="translate(.003)" d="M0 0h393v288H0z"/></clipPath></defs></svg>