<svg width="592" height="313" fill="none" xmlns="http://www.w3.org/2000/svg"><g clip-path="url('#clip0_203_1198')" fill-rule="evenodd" clip-rule="evenodd"><path d="M503.77 279.782c.27.159.543.448.812.444.422-.007.832-.213 1.249-.334-.165-.4-.232-.903-.518-1.177-.368-.352-.911-.522-1.38-.77-10.127-5.35-20.45-10.378-29.678-17.206-6.339-4.688-12.307-9.881-18.592-14.972 1.701-1.643.675-2.693-.169-3.68a116.462 116.462 0 0 0-19.153-17.88 18.998 18.998 0 0 1-5.135-5.722c-5.846-9.844-11.521-19.809-17.806-29.368-4.18-6.361-9.359-12.055-13.95-18.154-3.618-4.806-7.02-9.776-10.518-14.674l.404-.318c1.076 1.186 2.109 2.423 3.257 3.531.36.346 1.056.345 1.598.502-.101-.556-.018-1.267-.335-1.64-1.714-2.022-3.409-4.083-5.328-5.913-5.485-5.198-9.411-11.428-12.556-18.221-.445-.962-.882-1.94-1.459-2.816-.259-.397-.854-.576-1.297-.853-.076.555-.385 1.215-.189 1.646.893 1.979 1.929 3.891 2.908 5.831.255.504.486 1.022.727 1.533l-.437.307c-1.111-1.444-2.492-2.753-3.294-4.354-6.33-12.636-13.399-24.833-21.661-36.3-4.341-6.024-9.759-11.035-15.73-15.435-1.915-1.408-4.022-2.27-6.481-2.28-.549 0-1.207-.682-1.629-1.201-4.736-5.847-9.353-11.794-14.179-17.567-2.572-3.076-5.908-5.514-7.611-9.314-.141-.307-.746-.403-1.135-.596-.133.452-.452.95-.356 1.347.164.69.586 1.318.607 2.215-.926-1.002-1.859-2-2.778-3.013-.209-.232-.33-.552-.562-.76-6.535-6.054-12.94-12.284-20.579-16.99-2.279-1.407-4.809-2.41-7.258-3.519-.549-.25-1.239-.264-1.865-.26-1.829.01-2.683.952-2.306 2.737.224 1.054.774 2.041 1.327 3.436-2.311-.932-4.397-1.733-6.449-2.617-1.068-.459-2.053-1.11-3.117-1.575-.393-.172-1.23-.228-1.318-.055-.816 1.584-2.02.525-3.019.486-4-.16-7.27-2.402-10.83-3.85-3.168-1.288-6.423-2.365-9.663-3.463-1.134-.383-2.178-.282-2.072 1.326-3.896 0-7.656.035-11.416 0-5.301-.06-10.602-.125-15.902-.282-9.752-.281-19.502-.607-29.248-.977-1.991-.076-3.97-.451-6.012-.951.779-.196 1.547-.414 2.336-.583 8.85-1.897 17.816-2.454 26.84-2.305 3.657.06 7.314.172 10.971.176.504 0 1.009-.487 1.513-.747-.503-.32-1.005-.914-1.51-.917-7.788-.05-15.605-.445-23.356.11-6.768.484-13.452 2.096-20.186 3.12-1.469.223-3.04.31-4.486.042-4.571-.845-9.099-1.932-13.662-2.816a5.197 5.197 0 0 0-2.748.282c-.37.14-.422 1.126-.609 1.717.517-.01 1.039 0 1.554-.042.515-.042 1.035-.307 1.504-.215 3.938.767 7.854 1.595 11.778 2.404 0 .189-.011.378-.018.563-1.109.067-2.251.352-3.32.164-6.498-1.149-12.965-2.48-19.469-3.595-3.123-.533-6.3-.748-9.459-1.055-1.126-.11-2.283.032-3.403-.114-2.103-.282-3.948-1.05-5.786-2.274-2.349-1.563-5.088-2.563-7.71-3.682-3.553-1.515-7.173-2.866-10.722-4.395-.844-.364-1.47-1.198-2.25-1.733-.415-.282-.939-.441-1.435-.572-1.424-.376-2.868-.67-4.286-1.064-3.001-.834-6.002-1.672-8.978-2.587a44.094 44.094 0 0 1-4.457-1.668A53.127 53.127 0 0 0 62.698.037c-.21-.014-.495-.076-.622.03-1.983 1.69-4.346.488-6.49.892-.582.11-1.114.494-1.67.75-.36.165-.711.44-1.084.473-2.74.245-5.485.618-8.23.62-7.827.008-15.111 2.293-22.312 5.02-.543.206-1.083.423-1.627.625-.038.016-.093-.014-.294-.05.14-.189.291-.313.33-.465.14-.555.231-1.126.344-1.681-.578.062-1.299-.075-1.712.22-2.546 1.816-5.017 3.736-7.525 5.607-1.146.855-2.497 1.512-3.442 2.547-2.197 2.406-4.343 4.91-5.179 8.187-.118.465.14 1.022.217 1.537.31 2.07.624 4.14.918 6.212.037.256.06.624-.083.776-2.014 2.133-1.19 4.927-1.76 7.39-.224.974-.592 1.925-.717 2.909-.163 1.267-.03 2.582-.233 3.842-.411 2.555-.951 5.09-1.456 7.63-.17.852-.14 1.452.994 1.49.337.013.756.44.967.783C3.085 57.097 4 58.9 5.126 60.573c1.227 1.843 2.594 3.596 3.947 5.35.224.282.875.63 1.014.525.38-.281.592-.794.703-.97.985.956 1.982 2.112 3.16 3.034 2.374 1.867 4.865 3.583 7.266 5.418 1.125.857 2.11 1.9 3.235 2.744.304.226.92.035 1.392.036-.072-.485.033-1.148-.246-1.424-1.226-1.22-2.557-2.336-3.862-3.475-2.147-1.871-4.303-3.73-6.82-5.913 3.078.234 5.493-1.894 8.247-.535-.049.118-.063.242-.13.294-.469.352-.947.69-1.422 1.032.544.422 1.032 1.045 1.644 1.207 1.32.349 2.713.406 4.058.678 1.969.397 3.913.876 5.866 1.326.83.192 3.195-.934 3.198-1.689 0-.422-.58-1.126-1.016-1.235-1.169-.302-2.445-.205-3.598-.54-2.42-.704-4.827-1.489-7.173-2.423-1.666-.666-3.235-1.038-5.072-.727-3.386.575-6.742-.384-10.12-.563-.288-.014-.617-.355-.826-.622-2.598-3.347-4.562-7.055-5.572-11.156-.355-1.444-.028-3.119.244-4.647.75-4.212 1.584-8.409 2.502-12.59.174-.798.844-1.488 1.28-2.229l.429.193c-.06.303-.172.608-.167.91.01.703.07 1.42.118 2.128.024.34.105.682.094 1.02-.034 1.039.44 1.374 1.388 1.015 1.761-.668 3.051-2.76 2.79-4.553-.199-1.383-1.068-2.167-2.41-2.363-1.031-.15-2.08-.17-2.985-.238-.378-2.07-.866-4.015-1.034-5.99-.074-.87.38-1.859.8-2.691 1.915-3.789 5.204-5.884 9.089-7.23.905-.315 2.02-.385 2.257-1.706.045-.246.67-.456 1.06-.563 1.124-.303 2.282-.521 3.416-.811 3.835-.978 7.665-1.982 11.501-2.957 8.017-2.05 16.095-3.7 24.457-3.07.422.032 1.02-.102 1.293-.389 1.446-1.517 3.585-1.698 5.224-.37.232.189.686.463.803.377 1.754-1.277 3.562-.343 5.263-.028 2.814.52 5.802.14 8.45 1.549.226.138.472.242.73.307 1.056.2.3 2.424 2.297 1.857.832-.237 2.066.683 3.03 1.229 1.01.573 1.88 1.39 2.881 1.97.474.283 1.111.283 1.675.404l-.087-1.848c8.713 1.32 16.107 6.9 24.756 9.001-.643.546-1.126.955-1.602 1.361.443.458.807 1.086 1.346 1.34a40.765 40.765 0 0 0 4.716 1.879c.831.27 1.764.228 2.651.325l6.47.704-.016.604c-.587.096-1.21.1-1.745.318-.403.166-.694.607-1.035.925.401.241.829.725 1.199.683 4.245-.479 8.298.755 12.425 1.314.141.02.27.14.592.328-.391.13-.72.14-.873.315-.253.282-.595.718-.524.986.072.267.632.606.942.573 3.048-.328 6.093-.694 9.124-1.148.373-.055.66-.687.984-1.052-.402-.337-.773-.919-1.213-.977-5.285-.704-10.581-1.319-15.869-1.982-.401-.05-.779-.282-1.169-.422l.187-.765 25.065 4.108-.04.413c-.832.43-1.78.732-2.458 1.336-.512.455-1.014 1.363-.9 1.95.107.555 1.021.953 1.581 1.42l.672-1.689-.352-.281c2.583-1.325 5.138-2.425 8.25-1.569 2.627.722 5.366 1.045 8.017 1.537-.321.897-.675 1.674-.851 2.49-.065.3.281.69.45 1.041.381-.192 1.033-.313 1.106-.588.61-2.284 2.221-2.534 4.21-2.332a801.926 801.926 0 0 0 16.437 1.494c.55.044 1.149-.53 1.725-.816-.523-.318-1.021-.845-1.575-.914-1.934-.24-3.886-.324-5.826-.62h8.486c0 2.042 1.326 3.354 2.701 4.589.324.291.997.198 1.509.281-.099-.513-.051-1.126-.327-1.519-.634-.89-1.424-1.67-2.152-2.497l.096-.507 2.515-.325c.408 1.83.422 1.731 2.17 1.87 4.957.39 9.909.858 14.861 1.323 5.108.48 10.213.995 15.32 1.485 1.316.127 2.636.282 3.955.282.404 0 .809-.444 1.214-.685-.346-.316-.664-.867-1.042-.912-3.047-.356-6.105-.614-9.158-.907-3.462-.332-6.924-.67-10.372-1.155 8.933-.31 17.874.257 26.697 1.689l.112 1.897c.554-.15 1.108-.29 1.659-.45.4-.117.794-.371 1.19-.373 3.225-.014 6.409 0 9.438 1.524 7.957 3.987 15.991 7.818 23.968 11.765 6.358 3.147 12.041 7.309 17.478 11.827.53.44 1.003 1 1.603 1.294.601.292 1.353.336 2.037.488-.281-.665-.411-1.474-.875-1.971-.984-1.033-2.201-1.83-3.212-2.845-2.539-2.535-5.016-5.12-7.745-7.92 2.473-.563 4.391-.191 6.1.948a48.779 48.779 0 0 1 4.956 3.717 111.861 111.861 0 0 1 20.336 23.31c.236.31.361.691.357 1.081-.353-.387-.723-.76-1.056-1.163A151.64 151.64 0 0 0 301.755 59.3c-.318-.281-.643-.603-1.021-.727-.29-.096-.805-.02-.978.184-.173.204-.149.704-.046 1.01.09.271.392.488.633.692 10.848 9.192 19.801 20.08 27.925 31.664 3.157 4.505 5.831 9.338 8.707 14.034.556.906 1.003 1.926 2.19.896 3.235 4.48 6.427 8.849 9.565 13.253 1.865 2.619 4.759 4.364 6.18 7.367.141.3.844.334 1.291.49.023-.521.248-1.154.033-1.548-1.331-2.412-2.764-4.769-4.16-7.147a2.151 2.151 0 0 1-.367-1.267c.404.472.875.901 1.203 1.422 3.35 5.343 6.751 10.656 9.968 16.081 1.038 1.751 1.507 3.835 2.355 5.712.222.495.886.791 1.347 1.178.102-.563.457-1.236.266-1.664-1.688-3.758-3.461-7.479-5.248-11.191-.41-.845-.97-1.632-1.332-2.623.265.167.519.352.76.552 3.405 3.193 6.855 6.342 10.171 9.627.904.894 1.537 2.14 2.062 3.328 1.389 3.154 2.557 6.385 2.218 10.055-.657-1.025-1.28-2.075-1.978-3.072-.939-1.346-1.893-2.689-2.945-3.942-.239-.281-.906-.212-1.376-.304.021.477-.14 1.102.092 1.408 5.803 7.524 9.691 16.177 14.372 24.357 3.843 6.718 7.613 13.477 11.418 20.218.208.369.372.807.678 1.065.274.232.72.259 1.09.377.12-.41.433-.886.32-1.215-.268-.77-.871-1.384-.15-2.305.183-.233-.329-1.15-.676-1.643-3.979-5.631-7.854-11.338-10.735-17.639-1.674-3.661-3.225-7.379-4.923-11.031-.45-.967-.771-2.313-2.47-1.963-.211.044-1.039-1.126-.928-1.584.952-3.871-.27-7.433-1.352-11.029-.043-.141-.065-.296-.126-.584 3.471 2.89 6.249 6.162 8.082 10.166a5871.965 5871.965 0 0 1 11.393 25.037c.489 5.658 4.205 9.842 6.76 14.529 2.61 4.787 5.591 9.382 8.469 14.024.264.422.953.589 1.445.874 0-.608.24-1.353-.025-1.803-2.741-4.663-5.615-9.247-8.344-13.916-2.137-3.66-4.124-7.412-6.177-11.122-.103-.186-.301-.387-.281-.563.422-3.578-2.141-6.141-3.143-9.233-.434-1.339-1.125-2.596-1.44-4.07 1.378 1.689 2.879 3.288 4.113 5.068 6.401 9.263 12.055 18.973 17.111 29.032.188.373.322.776.481 1.165l-.041-.047c2.197 3.86 4.255 7.81 6.63 11.556a113.387 113.387 0 0 0 7.203 10.079c1.407 1.754 3.311 3.11 5.017 4.618 2.373 2.098 4.774 4.165 7.154 6.257.287.233.526.52.704.844 4.304 8.991 11.082 15.984 18.297 22.604 2.224 2.04 4.634 3.88 6.978 5.788 4.112 3.345 8.119 6.835 12.391 9.964 5.681 4.159 11.564 8.04 17.381 12.013 1.638 1.119 3.343 2.144 5.018 3.213l-.224.404c-2.059-1.033-4.235-1.886-6.152-3.137-4.035-2.63-7.934-5.468-11.889-8.223-.39-.272-.736-.644-1.165-.807-.281-.11-.882-.042-.985.141-.16.297-.093.77 0 1.135.059.218.353.378.553.552 9.697 8.399 20.712 13.766 33.153 16.119-.369 1.462.53 1.899 1.762 2.097 1.412.223 2.81.527 4.187.911-3.08 0-6.188-.273-9.232.062-5.001.549-8.79-1.639-12.346-4.668-.323-.282-.592-.68-.963-.816-.422-.153-.937-.073-1.407-.094.089.466.01 1.126.292 1.369 1.687 1.444 3.447 2.791 5.148 4.142l-.297 1.59c.595.081 1.19.172 1.787.241 1.126.134 2.333.05 3.376.414 5.991 2.084 11.945 4.273 17.908 6.433.141.05.259.16.753.477-.859.051-1.407.197-1.889.089-1.513-.341-2.985-.986-4.511-1.141-5.315-.543-10.649-.908-15.971-1.388a747.247 747.247 0 0 1-13.26-1.315c-.605-.065-1.183-.383-1.647-.542l1.25-1.33-2.558-1.594c-.132.115-.077.037 0 .008.755-.281 2.11.124 1.857-1.267-.06-.319-1.512-.594-2.297-.533-3.147.243-6.32 1.008-9.299-1.063.598-1.091-.041-1.654-1.063-2.044-5.542-2.112-9.811-5.759-13.574-10.344-5.983-7.297-12.346-14.285-18.586-21.372a25.724 25.724 0 0 0-3.246-3.041c-.383-.306-1.09-.204-1.649-.282.175.538.201 1.21.545 1.598 7.559 8.529 15.14 17.04 22.741 25.534.032.036.038.098.188.529-.937-.536-1.62-.932-2.307-1.32-2.582-1.46-5.097-3.065-7.776-4.318-1.531-.716-3.399-.676-4.991-1.296-1.89-.736-3.858-1.548-5.429-2.792-8.01-6.32-15.298-13.435-22.302-20.846-1.603-1.69-3.186-3.416-4.869-5.032-.436-.422-1.206-.489-1.828-.718.183.629.169 1.457.575 1.861a3786.842 3786.842 0 0 0 22.189 21.904c.126.102.23.231.303.376.072.146.113.306.119.469-2.228-.927-4.693-1.507-6.642-2.84-7.347-5.022-14.527-10.289-21.765-15.468a44.587 44.587 0 0 1-1.895-1.452c-.512-.41-1.184-.712-.719-1.643.113-.222-.291-.905-.623-1.126-9.554-6.217-17.264-14.735-26.519-21.307-3.487-2.477-7.265-4.539-10.887-6.829-1.115-.704-2.174-1.505-3.224-2.307-8.214-6.275-16.566-12.39-23.63-20.026-.468-.507-.882-1.101-1.44-1.473-.442-.294-1.068-.308-1.612-.446.122.563.069 1.267.4 1.64 1.378 1.541 2.852 2.995 4.329 4.444 1.439 1.407 3.177 2.593 4.332 4.201 1.988 2.77 5.218 4.164 7.335 7.141-2.021-.969-3.775-1.931-5.626-2.663-1.882-.747-3.634-2.29-5.936-1.251-.229.102-.671-.237-1.002-.396-2.673-1.284-5.345-2.585-8.018-3.856-.667-.318-1.354-.666-2.067-.786-.483-.081-1.027.211-1.548.338.179.51.204 1.219.563 1.492 1.513 1.158 3.13 2.18 4.701 3.263 1.536 1.058 3.065 2.128 4.596 3.194l-.256.41c-1.266-.722-2.591-1.346-3.768-2.184-2.813-1.999-5.56-4.083-8.289-6.181-.46-.354-.807-.961-1.008-1.523a30.033 30.033 0 0 1-1.161-3.956c-.174-.838-.028-1.737-.091-2.603-.037-.513-.153-1.438-.315-1.456-1.106-.125-1.118-.986-1.327-1.709-.865-2.998-1.675-6.012-2.59-8.994-.141-.464-.728-.791-1.107-1.182-.199.53-.668 1.126-.552 1.579.865 3.328 1.754 6.655 2.825 9.922.633 1.928.783 3.698.175 5.69-1.675 5.491-1.388 11.209-1.656 16.868-.164 3.421-.657 6.85-1.309 10.215-.209 1.088-1.393 1.987-2.299 2.884 2.008-8.613 1.439-17.355 2.015-26.005.031-.464.275-.922.456-1.368.158-.39.616-.899.499-1.108-.22-.397-.751-.838-1.167-.845-.416-.007-1.027.396-1.196.777-.291.658-.388 1.433-.422 2.167-.24 5.723-.198 11.471-.747 17.163-.407 4.235-1.388 8.448-2.482 12.57-.422 1.591-1.855 2.916-2.84 4.353-3.968 5.802-9.266 10.129-15.271 13.63-6.91 4.032-13.867 7.984-20.799 11.98-.312.179-.827.467-.811.676.118 1.74-1.329 1.82-2.353 2.21-3.165 1.205-6.343 2.386-9.572 3.397-.933.292-2.055-.031-3.094-.062-3.545-.108-7.091-.155-10.631-.339-2.352-.121-4.694-.435-7.04-.663v-.632c1.928-.199 3.851-.503 5.784-.575 2.913-.107 5.833-.04 8.749-.074.523 0 1.091-.027 1.547-.237.288-.131.543-.622.562-.961.009-.206-.443-.551-.738-.623-.452-.108-.95-.014-1.425-.045-6.329-.414-12.674-.704-18.988-1.34-1.752-.179-3.396-1.419-5.089-2.172.054-.21.108-.423.163-.63h6.761c.689 0 1.407.114 2.059-.035.448-.101.81-.57 1.211-.874-.401-.328-.758-.831-1.211-.942-.749-.185-1.561-.117-2.354-.155.111-1.509.678-2.5 2.15-2.838.39-.09.733-.423 1.076-.666 1.986-1.436 2.001-2.574-.029-4.152h4.048c1.734 0 1.937-.256 1.539-1.942-5.78.865-21.678-.222-23.931-1.664 3.714-.252 7.375-.514 11.04-.739.777-.049 1.582-.072 2.34.071 1.847.349 3.674.798 5.508 1.21 1.673.376 3.345.757 5.016 1.144l5.954 2.338c-1.46.498-3.116.986-4.701 1.644-.52.217-.862.865-1.285 1.315.638.141 1.333.523 1.908.389 3.19-.741 6.33-1.689 9.534-2.385 1.224-.265 2.553-.044 3.878.259-.959.487-1.969.898-2.854 1.497-.366.249-.459.901-.675 1.368.467.062.984.282 1.389.152.752-.229 1.42-.719 2.165-.985.4-.126.832-.095 1.211.084.926.508 1.286.124 1.688-.704.26-.536.817-1.249 1.305-1.302 3.062-.335 5.577-1.888 8.042-3.497 1.406-.921 2.512-1.049 3.785.174a131.838 131.838 0 0 0 5.907 5.328c.422.364 1.154.384 1.74.563-.183-.617-.177-1.429-.581-1.816-2.325-2.236-4.747-4.365-7.408-6.788 1.702-.721 3.298-1.333 4.829-2.081.512-.25.856-.844 1.278-1.282-.61-.13-1.242-.423-1.828-.349-.768.105-1.511.471-2.235.791-.871.383-1.629.778-2.666.227-.858-.458-1.696.042-1.529 1.086.208 1.296-.512 1.631-1.454 1.755-2.588.34-5.188.604-7.781.905-.411.048-.817.141-1.547.262.156-4.797-.511-9.525 1.547-14.203 2.16 1.632 2.679 3.651 2.626 5.913-.018.794-.168 1.597-.099 2.381.038.439.397.845.611 1.275.33-.329.876-.612.958-.995.744-3.489.562-6.918-2.289-9.4-2.492-2.171-5.36-3.909-8.031-5.88-.612-.452-1.282-.985-1.599-1.648a49.735 49.735 0 0 0-6.984-10.762c-1.616-1.888-2.303-4.575-3.47-7.03 1.309-.241 1.235-1.126.937-2.112-.422-1.408-.844-2.816-1.102-4.301 2.648 1.919 5.656 3.166 6.811 6.804 1.502 4.732 3.67 9.253 5.557 13.863.159.391.273.861.563 1.126a1.368 1.368 0 0 0 1.094.259c.197-.052.429-.628.365-.903-.176-.756-.501-1.478-.522-2.37.334.526.679 1.046 1.003 1.579 4.219 6.954 8.66 13.743 14.902 19.121.523.449 1.021.961 1.62 1.267.322.165.836-.048 1.266-.092-.053-.39-.083-.787-.174-1.168-.033-.128-.217-.225-.339-.325-6.272-5.105-10.804-11.624-14.964-18.444-.829-1.358-1.688-2.697-2.487-4.073-.585-1.012-1.235-1.437-2.432-.169-3.766-10.038-7.496-19.834-11.084-29.682-.703-1.912-.783-4.042-1.266-6.043-.133-.545-.703-.986-1.067-1.471-.218.563-.677 1.16-.616 1.689.663 5.787 2.575 11.224 4.764 16.58.34.832.652 1.676.971 2.518.009.024-.06.079-.216.265-1.484-1.155-2.992-2.293-4.452-3.492-.298-.245-.498-.695-.593-1.086-1.746-7.155-3.524-14.32-3.174-21.764.133-2.793.704-5.562.977-8.35.049-.497-.349-1.036-.542-1.557-.367.414-.956.776-1.07 1.252-2.155 9-1.003 17.88 1.097 26.713.156.653.281 1.313.506 2.393-2.464-2.58-4.968-4.544-5.777-7.871-.635-2.615-1.502-5.174-2.187-7.49l1.487-1.502c-.478-.423-.985-.821-1.428-1.268-.302-.301-.686-.643-.765-1.023-.259-1.24-.532-2.505-.554-3.763-.113-6.463-.415-12.942 1.366-19.279.209-.75.984-1.962-.282-2.313-1.339-.369-1.237 1.111-1.368 1.849-.725 4.105-1.325 8.233-1.937 12.151-.821-5.855-1.716-11.946.152-18.039.062-.201.174-.422.132-.615-.111-.499-.292-.986-.446-1.47-.396.319-1.056.58-1.145.969-.502 2.211-1.004 4.439-1.236 6.688-.201 1.939-.042 3.916-.22 5.897-.256-1.289-.445-2.596-.807-3.855-.125-.439-.672-.758-1.027-1.126-.208.459-.641.944-.592 1.372.312 2.675.795 5.336 1.089 8.017.164 1.508-.11 3.076.14 4.561.503 2.957 1.23 5.883 1.97 9.267-1.479-.552-2.991-.805-4.126-1.601-3.315-2.324-6.892-3.681-10.944-3.705-.422 0-.912-.061-1.255.122-1.931 1.029-3.267.072-4.577-1.219-3.058-3.013-6.146-5.996-9.221-8.995-1.004-.979-1.407-2.141-1.369-3.577.079-2.816.023-5.632-.01-8.439-.009-.748.231-1.839-.943-1.76-.339.022-.825 1.175-.857 1.83-.11 2.167-.041 4.342-.343 6.564-.319-1.698-.599-3.406-.966-5.094-.413-1.894-.985-3.754-1.341-5.657-.906-4.832-1.866-9.662-2.495-14.534-.17-1.316.703-2.8 1.214-4.161.315-.833.943-1.549 1.273-2.373.202-.507.102-1.133.14-1.706-.548.267-1.361.391-1.596.826-1.125 2.092-2.391 4.182-3.068 6.433-1.359 4.505-2.574 9.068-3.454 13.682-.704 3.677-.902 7.462-1.18 11.205-.481 6.439-.486 12.94-2.282 19.203-.481 1.675-1.375 3.311-2.399 4.733-1.638 2.278-3.39 4.518-5.379 6.485-1.768 1.747-3.938 3.08-5.898 4.646-.422.338-.844.82-1.013 1.322-.925 2.815-1.766 5.651-2.648 8.477-.335 1.071-.273 1.904 1.232 1.978 0 .153.016.305.023.459-.69.243-1.389.466-2.067.74-.467.189-1.026.345-1.332.704-1.09 1.267-1.927 2.8-3.162 3.89a29.93 29.93 0 0 1-5.307 3.716c-2.36 1.302-4.907 2.252-7.305 3.494-.585.301-.903 1.119-1.343 1.701.571.39 1.092.94 1.724 1.126 1.089.334 2.25.445 3.67.704-4.435 1.214-8.921.563-12.898-1.881.97-.059 1.687.011 2.32-.182.403-.123.683-.64 1.017-.985-.351-.263-.673-.672-1.063-.753-.611-.128-1.266-.072-1.902-.028-2.352.167-4.63.108-6.723-1.254-.907-.589-2.163-.675-2.685.379-.864 1.743-2.376 1.574-3.832 1.814-.654.108-1.275.422-2.098.704-.602-.788-1.493-1.722-2.083-2.816-.335-.62-.116-1.515-.252-2.268-.121-.663-.388-1.301-.589-1.952l-1.712 1.246c-1.592-.471-3.657-.797-4.428-3.206 1.166-.104 2.345-.216 3.525-.313.685-.057 1.42.047 2.042-.174.575-.208 1.359-.691 1.449-1.167.09-.476-.422-1.295-.9-1.633-2.123-1.492-4.331-2.862-6.506-4.283-.339-.221-.664-.463-1.16-.811 1.885-.763 3.568-1.488 5.284-2.127 1.912-.711 2.708-.362 3.535 1.475.259.578.328 1.252.646 1.786.251.422.751.69 1.14 1.026.176-.501.563-1.031.493-1.497-.498-3.594-2.401-5.051-6.375-4.729l7.892-6.687c.159 1.744.31 3.238.422 4.73.238 3.01.262 6.054.768 9.019.241 1.408 1.245 2.768 2.142 3.972 3.556 4.769 10.995 7.18 16.7 5.534 2.259-.654 4.923-3.801 5.064-6.061.02-.298-.215-.837-.411-.878-.339-.071-.866.053-1.084.3-.338.378-.508.921-.703 1.408-.888 2.276-2.475 3.625-4.954 3.884-2.353.245-4.659.13-6.853-.831-.364-.159-.616-.582-.924-.877-2.11.175-5.839-3.12-6.548-6.013 2.383 1.67 5.598 1.971 6.061 5.478.026.206.308.376.471.563 1.144.015 1.144.014 1.185-1.533 1.751.328 3.529.586 5.267 1.008 1.418.344 1.505-.422 1.245-1.372-.516-1.884-1.125-3.744-1.733-5.601-1.406-4.259-2.224-8.588-1.856-13.106.032-.399-.401-.835-.618-1.253-.363.353-.977.667-1.039 1.067-.154.986-.051 2.005-.051 3.121-1.616.062-1.746.938-1.302 2.163 1.24 3.432 2.467 6.871 3.679 10.316.293.836.487 1.707.73 2.577-2.362.314-5.391-1.475-5.774-3.548-1.181-6.393-2.25-12.811-3.359-19.214-.043-.254-.081-.661.057-.769 1.756-1.38.82-3.238.756-4.839-.309-7.891-.804-15.768-1.183-23.663-.168-3.549-.185-7.108-.358-10.657-.026-.497-.556-.969-.851-1.452-.315.51-.92 1.031-.902 1.529.335 9.327.737 18.652 1.142 27.976.066 1.535.213 3.067.314 4.6.018.263.111.638-.021.773-.605.614-1.407 1.036-1.134 2.169.21.864.208 1.78.297 2.635-1.605.768-2.269 2.007-1.912 3.671.078.368.517.679.834.968.268.243.802.364.871.63.82 3.136 1.615 6.278 2.331 9.44.488 2.152.844 4.335 1.283 6.651l-5.323-2.578c-.201-2.317-.886-4.87-.474-7.231.308-1.765.563-3.415.206-5.122-.422-2.028-1.026-4.019-1.496-6.038-.08-.345-.012-.985.199-1.095 1.447-.796.993-2.045.422-2.86-1.722-2.454-2.05-5.158-2.331-8.047-.475-4.888-2.374-9.418-4.379-13.876a29.464 29.464 0 0 1-1.443-3.85c-.19-.656.013-1.415-.057-2.118-.114-1.147-.127-2.346-.493-3.417-1.81-5.314-3.752-10.581-5.582-15.889-.72-2.092-1.228-4.257-1.924-6.36-.166-.499-.704-.875-1.071-1.307-.233.514-.743 1.086-.651 1.533a38.905 38.905 0 0 0 1.406 5.197c1.266 3.577 2.643 7.117 3.704 10.801-1.961-2.99-4.501-5.772-5.691-9.043-.876-2.413-2.609-3.107-4.189-4.332-2.501-1.943-5.046-3.826-7.595-5.695a799.65 799.65 0 0 0-10.708-7.714c-.998-.704-1.773-.384-2.11 1.393-2.864-3.113-5.918-5.699-8.048-8.899-4.611-6.922-8.75-14.157-13.081-21.26-.194-.318-.303-.73-.572-.944-.327-.26-.784-.354-1.185-.518-.121.413-.364.844-.328 1.239.037.394.336.765.553 1.126l10.971 18.267c.281.475.563.951.653 1.556-.657-.584-1.283-1.208-1.978-1.743-1.477-1.139-2.307-.814-2.755 1.159-2.475-2.596-4.137-5.612-5.205-8.881-1.157-3.562-1.922-7.251-2.93-10.865-.14-.487-.683-.857-1.04-1.283-.201.51-.653 1.069-.563 1.52.676 3.422 1.457 6.822 2.189 10.152l-1.501.615c.26.604.439 1.267.796 1.801 1.475 2.219 3.006 4.401 4.516 6.597l-.507.351c-1.006-1.439-2.054-2.851-3.01-4.323-1.444-2.221-2.8-4.505-4.257-6.712-.239-.364-.793-.519-1.204-.77-.118.504-.38 1.026-.319 1.506.062.48.39.986.69 1.416 3.223 4.599 6.458 9.193 9.706 13.781.183.257.384.563.65.685.496.22 1.173.571 1.547.39.374-.18.51-.941.563-1.465.04-.439-.202-.904-.012-1.524 1.15 1.918 2.25 3.869 3.48 5.731.33.501 1.07.732 1.623 1.088 0-.666.214-1.425-.03-1.98-.773-1.738-1.738-3.388-2.582-5.096-.271-.549-.4-1.17-.718-2.13.562.414.821.552 1.01.759 4.047 4.419 8.048 8.882 12.14 13.256 2.098 2.24 4.333 4.355 6.575 6.45.36.335 1.09.272 1.647.391-.176-.573-.187-1.309-.562-1.689-1.951-2.018-4.006-3.934-5.995-5.913a3.58 3.58 0 0 1-1-1.811c.742.704 1.467 1.419 2.23 2.096 2.53 2.253 5.02 4.575 7.67 6.688.87.693 2.185.818 3.286 1.228.428.172.846.369 1.25.591.423.217.915.739 1.222.64 1.713-.551 2.356.772 3.116 1.729 2.773 3.485 5.457 7.04 8.226 10.527.422.525 1.215.738 1.671 1.245.828.92 1.786 1.852 2.231 2.963.886 2.214 2.063 4.403 1.719 6.953-.044.319.236.684.368 1.026.324.836.678 1.661.966 2.51.446 1.315.342 2.675 1.839 3.749 1.039.744 1.194 2.729 1.754 4.187-1.732.151-1.829.423-1.356 1.912.368 1.173.385 2.453.693 3.65.947 3.66 1.308 7.388 1.279 11.16 0 .787-.086 1.573-.141 2.478-1.01-.29-2.155-1.347-2.638.297-.273.926-.152 1.971-.228 3.324-5.12 1.523-10.485 3.075-15.81 4.747-.965.303-2.317.968-2.505 1.714-.204.805.491 2.269 1.247 2.803 2.012 1.42 4.26 2.51 6.426 3.708 3.441 1.902 6.892 3.785 10.343 5.676l-.212.733c-1.03 0-2.061-.027-3.094 0-2.126.07-3.442.986-3.75 2.544-.268 1.357 1.187 4.455 2.42 4.928.486.184 1.1.029 1.697.029 2.214 3.327 2.437 3.45 4.577 2.284.668.895 1.344 1.822 2.043 2.731.581.758 1.136 1.549 1.794 2.229 1.644 1.708 3.143 1.525 4.387-.476.028-.045.055-.09.084-.141.563-.892 1.012-2.43 1.709-2.552 2-.349 4.088-.853 6.096.581 4.584 3.276 9.766 3.818 15.178 2.778.718-.141 1.474-.368 2.065-.77.453-.31.916-.958.917-1.459 0-.363-.682-.905-1.16-1.058-.895-.289-1.862-.352-2.799-.512-.509-.085-1.017-.177-1.969-.343 1.455-.532 2.268-1.623 3.629-.704.299.201 1.095-.201 1.596-.458 2.304-1.184 4.585-2.414 7.123-3.379-1.151 1.145-2.297 2.295-3.452 3.436-.302.298-.743.512-.92.866-.246.49-.305 1.075-.444 1.62.517-.084 1.228.02 1.52-.282 2.208-2.275 4.434-4.548 6.459-6.985 2.141-2.576 3.003-5.853 4.408-8.832.282-.584.879-1.021 1.359-1.5.335-.333.747-.592 1.068-.937 2.462-2.636 4.941-5.257 7.332-7.956.398-.449.392-1.255.574-1.895-.611.228-1.384.294-1.802.714-1.49 1.502-2.86 3.124-4.305 4.736-1.853-1.221-2.915.245-4.23 1.077.563-1.341.592-2.917 2.612-3.391 1.01-.236 1.875-1.319 2.682-2.142 1.632-1.664 3.11-3.483 4.783-5.111 3.156-3.083 7.274-3.921 11.356-4.787l.224.366c-.412.29-.799.627-1.239.862-1.887 1.012-3.739 2.055-4.603 4.181-.177.438-.375.915-.36 1.367.013.395.315.778.49 1.165.37-.214 1.01-.368 1.072-.649.648-2.917 3.036-3.878 5.406-5.028.704 1.369 1.303 2.722 2.071 3.976.263.429.934.608 1.418.901.042-.563.281-1.199.087-1.67-.508-1.267-1.193-2.476-1.938-3.967 1.526-.53 2.915-1.267 4.377-1.46 2.408-.321 4.862-.38 7.296-.362.818 0 1.624.61 2.453.891 1.931.655 3.861 1.321 5.817 1.892.703.206 1.488.078 1.505 1.173 0 .2.497.493.806.563 1.085.264 2.215.362 3.276.69 1.234.38 2.293.551 2.84-.998.925.208 1.792.477 2.672.563.369.037.775-.307 1.164-.477-.262-.384-.444-.904-.806-1.126-.507-.303-1.148-.382-1.739-.876l3.176-.759c1.1 1.187 2.075 2.367 3.197 3.379.39.352 1.144.3 1.732.432-.199-.583-.246-1.305-.628-1.72-.635-.693-1.484-1.19-2.243-1.769l.337-.592 2.733-.444c1.407 5.157 2.625 10.191 4.146 15.134 2.617 8.519 6.181 16.597 12.024 23.469 1.952 2.297 4.055 4.463 6.015 6.606-.027.546-.269 1.394-.057 2.112.374 1.26.969 2.467 1.59 3.634a2.13 2.13 0 0 0 1.215.977c.218.055.623-.623 1.113-1.15.298.504.984 1.126.936 1.676-.215 2.615-1.036 4.965-2.844 7.048-2.79 3.216-6.075 2.713-9.522 1.767-1.882-.517-3.722-1.246-5.626-1.588-1.804-.324-2.225.179-2.403 2.175h-5.505c-.53 0-1.087-.097-1.584.035-.673.178-1.299.533-1.946.811.281.655.562 1.311.911 2.095-2.532.165-5.249.268-7.95.563-.831.091-2.067.505-2.311 1.1-.485 1.184.812 1.615 1.651 2.13.224.141.465.249.694.372-.608 1.719-.412 2.136 1.371 2.688 2.778.858 5.569 1.671 8.345 2.534.573.179 1.103.491 1.653.743l-.074.463c-2.199 0-4.399.013-6.597 0-1.059-.008-2.135-.198-3.173-.067-.673.084-1.29.599-1.932.922l1.501 1.361c1.266 1.145 2.462 2.384 3.82 3.406a38.176 38.176 0 0 0 4.454 2.816c1.305.725 2.703 1.282 4.138 1.95-1.521 1.941-1.346 3.122.651 3.69 2.419.685 4.95 1.18 7.455 1.316 3.906.214 7.831.058 11.955.058-.243.297-.422.439-.496.622-.183.456-.553 1.041-.404 1.37.149.33.834.598 1.29.607a24.593 24.593 0 0 0 9.468-1.719c4.536-1.774 9.037-3.645 13.619-5.288 2.421-.869 4.989-1.318 7.476-2.011.521-.14 1.106-.432 1.407-.844.147-.203-.282-.832-.401-1.12 2.326-1.779 4.675-3.76 7.211-5.461 2.422-1.626 5.303-1.637 8.113-1.592 1.211.018 2.417.328 3.628.343.448 0 .904-.45 1.357-.695-.378-.354-.703-.931-1.142-1.019-1.29-.262-2.616-.333-4.072-.495.194-.159.311-.316.463-.369 6.122-2.073 10.055-6.458 12.839-12.092.313-.633.844-1.191 1.378-1.677.869-.795 1.757-.753 2.884-.236a39.024 39.024 0 0 0 5.819 2.054c3.046.845 6.159 1.449 9.198 2.316 1.266.362 2.43 1.136 3.901 1.85-1.819 1.433-3.556 1.802-5.355 1.882-1.688.073-3.4-.065-5.087.058-.521.036-1.003.619-1.503.952.517.304 1.055.901 1.548.863 4.523-.348 8.743.692 12.719 2.741.854.441 1.613 1.288 2.12 2.127.814 1.355 1.304 2.902 2.097 4.27.281.48 1.048.673 1.594.997.315-.563.949-1.154.89-1.67-.238-2.035-.514-4.099-1.101-6.054-1.342-4.458-2.878-8.861-4.331-13.287a1.463 1.463 0 0 1-.048-.953l10.321 21.649c-.673.046-1.315-.021-1.87.166-.41.141-.704.607-1.057.928.381.281.74.757 1.149.806.659.081 1.351-.121 2.491-.259-1.687 1.369-3.018 2.501-4.419 3.543-.252.187-.799.077-1.177-.02-2.663-.687-5.333-1.349-7.959-2.154-.63-.193-1.291-.798-1.612-1.391-1.662-3.067-3.211-6.195-4.824-9.292-.217-.423-.506-.858-.882-1.11-.336-.225-.835-.205-1.266-.294-.041.435-.247.95-.086 1.29.314.659.906 1.179 1.258 1.83 1.432 2.64 2.813 5.305 4.422 8.347-2.456-.48-4.723-.363-6.283-1.357-2.432-1.549-5.047-1.533-7.625-2.036-.361-.07-.781-.197-1.094-.083-.542.197-1.021.563-1.526.858.379.43.693 1.136 1.15 1.247 2.974.719 5.978 1.322 8.977 1.94 2.3.473 4.606.914 6.909 1.37-.045.231-.09.462-.141.691-1.345-.249-2.691-.49-4.032-.753-1.597-.31-3.179-.75-4.783-.898-.562-.051-1.183.605-1.776.939.499.422.935 1.014 1.512 1.244a5.932 5.932 0 0 0 2.475.455c2.851-.167 4.444 1.631 5.963 3.602.353.457.692.923 1.072 1.431-6.531-.519-21.584-5.511-22.144-9.901 2.813-1.69 5.663-3.403 8.528-5.084 1.096-.642 2.239-1.205 3.366-1.792.64-.334 1.256-.813 1.954.012.101.118.811-.281 1.24-.442-.32-.646-.491-1.599-1.005-1.855-.515-.257-1.473 0-2.096.308-2.178 1.088-4.306 2.279-6.434 3.468-1.894 1.057-3.757 2.175-5.647 3.238-1.799 1.013-2.391 2.534-1.009 4.036 1.573 1.721 3.434 3.411 5.511 4.381 3.625 1.69 7.517 2.801 11.277 4.207.562.21.984.756 1.515 1.066.478.282 1.002.563 1.538.649 5.167.811 10.341 1.577 15.513 2.367 2.403.366 4.802.759 7.205 1.126.573.089 1.164.211 1.731.156.342-.032.653-.377.976-.581-.256-.337-.464-.901-.778-.969-1.807-.39-3.634-.683-5.461-.967a3774.4 3774.4 0 0 0-10.971-1.667c-.791-.12-1.314-.389-1.422-1.35-.161-1.408-.522-2.795-.881-4.608 2.75.415 5.308.845 7.877 1.159a2.813 2.813 0 0 0 1.764-.423c1.707-1.16 3.343-2.428 5.001-3.66.456-.338.896-.694 1.571-.817-.815.918-1.704 1.784-2.417 2.778-.334.462-.324 1.168-.47 1.765.578-.187 1.329-.205 1.703-.591 1.657-1.705 3.206-3.52 4.851-5.35.729 1.174 1.417 1.086 2.11.125 3.339-4.646 6.705-9.271 10.005-13.938.985-1.408 1.793-2.937 2.701-4.399.14-.219.368-.378.562-.555 2.964-2.661 3.503-2.75 6.814-.665 4.799 3.023 9.722 5.888 14.273 9.25 2.683 1.981 4.753 4.794 7.092 7.235.258.268.432.656.736.827.489.281 1.053.422 1.586.616-.056-.563-.097-1.126-.178-1.675-.02-.141-.166-.26-.118-.576 1.014.765 2.033 1.521 3.041 2.295 7.817 6.01 15.548 12.14 23.478 17.997 5.442 4.02 11.522 6.872 18.036 8.847 2.681.813 5.474 1.722 7.351 4.134.187.241.79.481.944.37 1.125-.821 2.007 0 2.92.378a126.756 126.756 0 0 0 25.374 7.429c2.481.449 4.77 1.958 7.104 3.327-.946 0-1.898.073-2.837-.013-3.375-.308-6.733-.704-10.106-.977-.432-.034-.903.422-1.356.649.382.344.74.956 1.149.986 5.534.478 11.076.858 16.613 1.308 1.095.107 2.18.296 3.247.563 4.419 1.027 8.8 2.252 13.259 3.06 1.969.357 4.112-.047 6.16-.253 1.015-.101 1.817-.721 1.631-1.94-.204-1.343.545-1.468 1.588-1.429 6.089.232 12.177.455 18.267.625.584.016 1.179-.353 1.768-.542-.374-.6-.62-1.387-1.153-1.757a8.707 8.707 0 0 0-2.879-1.285c-.505-.121-1.152.356-1.636.933l-2.605-.595v-.207c3.622-.649 7.253-1.251 10.863-1.972 1.79-.356 3.516-.449 5.307.009 3.544.907 6.966-.044 10.286-1.102 5.006-1.596 10.081-2.761 15.299-3.358a5.206 5.206 0 0 0 3.041-1.343c.949-.835 2.662-.807 4.045-1.141.563-.141 1.183-.131 1.688-.367.446-.204.776-.659 1.158-1.003-.462-.215-.961-.668-1.379-.604-2.034.316-4.047.772-6.068 1.173a1.314 1.314 0 0 1-.928-.127c.541-.447 1.051-.943 1.629-1.337 2.892-1.971 5.802-3.908 8.703-5.861.396-.266.882-.473 1.148-.845.36-.493.546-1.111.808-1.677-.657-.017-1.435-.267-1.948 0-1.359.697-2.617 1.602-3.891 2.458-.615.413-1.193.886-1.765 1.358-4.387 3.622-9.493 4.309-14.942 3.77-3.318-.328-6.647-.601-9.98-.729-7.52-.293-15.05-.306-22.565-.755-9.091-.545-18.116-1.696-26.785-4.714-1.076-.374-2.023-1.108-3.069-1.588-.407-.187-.923-.14-1.388-.191.053.481-.072 1.187.195 1.408.852.685 1.782 1.432 2.803 1.717 4.372 1.221 8.743 2.505 13.194 3.361 10.233 1.971 20.623 2.078 31.003 2.322 6.437.149 12.865.642 19.375 1.341-.907.333-1.814.668-2.723.996-6.048 2.182-12.228 3.738-18.674 3.981-1.287.05-2.615-.257-3.88-.574-3.166-.793-6.307-1.69-8.519-2.282h5.492c1.379 0 2.763.072 4.134-.031.515-.038.999-.482 1.497-.739-.473-.282-.922-.754-1.424-.82-1.204-.157-2.433-.097-3.65-.177-6.388-.423-12.774-.856-19.35-1.3.345-1.712-.717-1.819-1.877-2.034-4.672-.873-9.329-1.821-13.984-2.768a4.17 4.17 0 0 1-1.453-.597c-5.5-3.681-10.991-7.376-16.474-11.084-.435-.293-.862-.596-1.529-1.056.442 0 .618-.038.769 0 3.494 1.026 6.992 2.038 10.469 3.121.512.159.923.651 1.375.997.703.539 1.337 1.202 2.11 1.609 5.682 2.996 11.831 4.505 18.105 5.632 10.861 1.971 21.811 1.951 32.78 1.548.521-.019 1.024-.595 1.534-.913-.548-.282-1.098-.827-1.647-.825-5.141.011-10.289.311-15.424.149-9.167-.289-18.255-1.345-27.051-4.11-2.663-.838-5.223-2.002-7.472-2.878-.253-1.185-.422-1.949-.586-2.708-.573.036-1.154.169-1.702.083-11.602-1.8-21.231-7.596-29.819-15.217-4.349-3.859-8.234-8.242-12.322-12.389-.305-.311-.554-.677-.83-1.017 6.724 5.795 13.633 11.301 21.296 15.726 7.694 4.455 15.566 8.587 23.361 12.853Zm-138.074-26.74-.382.16c-.308-.405-.634-.799-.922-1.219-3.628-5.291-7.227-10.601-10.894-15.864a21.808 21.808 0 0 0-2.916-3.346c-.404-.381-1.21-.333-1.828-.481-.033.626-.203 1.284-.061 1.867.166.683.606 1.298.927 1.942-.589-.351-.836-.929-1.266-1.279-.467-.377-1.107-.539-1.672-.795-.118.563-.311 1.126-.329 1.699-.012.402.17.83.339 1.214 1.768 4.052 2.476 8.439 4.136 12.551 1.598 3.954 2.515 8.183 3.716 12.295.097.335.076.704.11 1.059a7.03 7.03 0 0 1-1.325-2.031 35838.93 35838.93 0 0 1-14.223-30.89c-.354-.77-.648-1.582-1.111-2.28-.211-.319-.813-.609-1.152-.531-.272.06-.585.704-.573 1.074.021.673.227 1.353.435 2.003 2.753 8.621 5.514 17.24 8.283 25.855.269.845.526 1.682.789 2.523l-.374.128-12.278-28.097c.387.128.637.293.871.273.422-.04.844-.186 1.266-.282-.191-.433-.326-.905-.595-1.284-.166-.233-.532-.329-.815-.473-1.873-.954-2.339-2.007-1.863-4.287 1.894.67 3.761 1.418 5.679 1.992 5.143 1.541 10.173 3.688 15.743 3.067.281-.031.624.117.883.274 1.896 1.155 3.778 2.335 5.353 3.312.266 1.419.344 2.579.704 3.64 1.081 3.156 2.337 6.25 3.402 9.409.75 2.228 1.301 4.531 1.943 6.802Zm3.725-120.434-.317.242c-1.445-1.353-2.937-2.659-4.326-4.067-3.868-3.925-8.167-7.538-11.442-11.914-7.712-10.306-15.72-20.423-22.426-31.455-.373-.614-.778-1.207-1.301-2.015 2.311 0 3.906 1.055 5.414 2.2 5.127 3.9 9.875 8.226 13.784 13.355 7.258 9.506 13.148 19.883 18.908 30.334.605 1.089 1.141 2.213 1.706 3.32Zm-2.721 95.314c5.518 2.858 23.657 19.041 25.757 22.808-.493-.281-.844-.471-1.196-.681l-16.194-9.784c-.77-.466-1.908-.744-2.226-1.417-.318-.673.257-1.715.316-2.604.027-.397-.249-.813-.386-1.222-.411.234-.95.375-1.2.723-.383.535-.563 1.213-.941 2.078-9.143-5.663-18.176-11.263-26.95-16.697.11-3.571-2.985-4.496-4.594-6.695.618.281 1.086.489 1.547.715 4.183 2.06 8.362 4.123 12.54 6.187.918.455 1.778.768 2.418-.76 1.744 1.333 3.418 2.45 4.897 3.783 2.006 1.811 3.838 3.816 5.811 5.664.325.304.994.239 1.505.346-.077-.509-.068-1.055-.259-1.517-.155-.365-.555-.625-.845-.932v.005Zm22.281 16.293.414-.433c2.364 1.93 4.855 3.727 7.066 5.821a119.796 119.796 0 0 0 15.334 12.34c4.738 3.201 9.368 6.56 14.025 9.879.443.317.799.801 1.096 1.267.464.735.692 1.68 1.286 2.262a84.777 84.777 0 0 0 5.439 4.882c1.818 1.5 3.747 2.867 5.626 4.294a2.827 2.827 0 0 1-1.595-.538c-3.079-2.065-6.254-4.006-9.196-6.251-8.005-6.109-15.723-12.608-23.912-18.444-6.011-4.292-10.21-10.248-15.583-15.079Zm153.915 59.072c-2.901.497-5.854 1.074-8.829 1.488-1.748.242-3.598.563-5.287.246-3.106-.587-6.159-1.523-9.173-2.504-3.129-1.018-6.189-2.26-9.274-3.403.359-.351.613-.383.865-.373 5.984.212 11.987.214 17.945.722 4.193.356 8.325 1.408 12.486 2.14.859.152 1.539.445 1.267 1.684ZM270.884 33.854c3.709-.83 18.811 8.69 21.786 13.488-1.668.01-3.516-1.025-4.832.738-2.025-1.605-3.963-3.347-6.107-4.779-2.143-1.432-4.559-2.458-6.739-3.842-2.013-1.278-3.222-3.252-4.108-5.605ZM406.995 183.39c9.975 12.723 17.547 26.978 25.376 41.102-1.631-1.581-3.236-3.187-4.642-4.958-4.427-5.588-7.835-11.814-11.148-18.096-3.181-6.024-6.39-12.033-9.586-18.048Zm-81.108 54.016c-1.419-3.484-.125-7.074 2.407-7.641l7.571 17.51c-1.866-.431-4.105-.945-6.342-1.478a.806.806 0 0 1-.496-.359c-.895-2.029-1.766-4.068-2.642-6.104l.584-.388c.581.65 1.112 1.361 1.765 1.929.331.281.882.319 1.333.467.09-.372.337-.788.244-1.107-.556-1.928-2.346-3.065-4.424-2.829Zm-89.959-43.275c.224.472.461.936.67 1.408 2.085 4.813 4.166 9.629 6.242 14.446.444 1.038.816 2.077 2.224 1.267 1.464 2.849 2.813 5.552 4.24 8.213.555 1.035 1.266 1.986 1.941 2.956 1.444 2.074 2.908 4.134 4.361 6.195l-.471.3c-11.101-8.942-15.841-21.473-19.207-34.785Zm-50.214-16.267c.055-.407.101-.764.149-1.126.373-2.828.844-5.648 1.1-8.487.594-6.425.937-12.876 1.688-19.288.37-3.172 1.406-6.264 2.148-9.392l.322.086-.65 9.303c-1.647.131-1.802.41-1.283 2.07.453 1.444 1.348 2.956 1.191 4.347-.773 6.874-1.828 13.716-2.793 20.568-.136.994-.499 1.839-1.872 1.919Zm-65.422 15.065c.864 1.309.851 2.274-.439 3.193-2.757 1.971-5.43 4.045-8.168 6.038-.281.204-.832.318-1.125.183-1.916-.885-3.828-1.791-5.668-2.815-.671-.376-1.14-1.114-1.906-1.897l3.727-.897c.175 1.597 1.137 1.332 2.102.986 3.917-1.391 8.151-1.988 11.477-4.79v-.001Zm142.587 59.438c-.62.682-1.062 1.235-1.575 1.709-.422.388-.906.935-1.39.963-.958.058-1.934-.194-2.903-.318l.385-.367-1.017-2.984c-.166-.488-.585-1.115-.422-1.436.217-.422.871-.747 1.39-.844.767-.152 1.604.036 2.363-.134.391-.087.678-.638 1.013-.986-.352-.263-.675-.694-1.059-.757-.743-.121-1.519-.035-2.282-.035l-.29-.403 6.416-6.887c-.206 4.101-.425 8.464-.629 12.479Zm87.939-24.977c-.046.19-.091.38-.14.571a4.327 4.327 0 0 1-.772 0c-6.956-1.251-13.586-3.531-20.071-6.304-1.305-.563-1.688-1.408-1.472-3.214l22.455 8.947Zm17.052 26.112-5.855-17.621.298-.214 7.567 8.646c-.629 2.87-1.325 6.054-2.01 9.189Zm-6.028 6.483c-.813-2.217-1.611-4.382-2.392-6.553-.066-.183-.13-.433-.06-.589.996-2.167-.242-3.78-1.622-4.995-2.532-2.226-2.722-5.468-4.139-8.173 2.109 2.675 3.997 5.48 5.907 8.27 1.93 2.826 3.874 5.643 5.908 8.599l-3.602 3.441Zm-4.822 4a56053.96 56053.96 0 0 0-4.269-14.971l.3-.372c.458.3 1.133.493 1.341.915a479.334 479.334 0 0 1 5.382 11.341c.152.33.114 1.01-.114 1.209-.772.676-1.668 1.207-2.64 1.878Zm-157.314-94.819.538-.159 9.193 8.74-6.33 1.531-3.401-10.112Zm-5.454-.198 7.106 11.083-8.81 1.158c-.714-2.662-.502-4.135.739-5.226.36.828.562 1.787 1.125 2.43.511.585 1.547 1.267 2.11 1.1.586-.177 1.136-1.284 1.245-2.05.239-1.681-.86-2.727-2.2-3.544-.335-.205-.844-.46-.886-.753-.218-1.33-.291-2.683-.429-4.198Zm130.819 71.802 1.712 4.279-.332.325-8.374-3.531-.365-.519c3.376-2.47 4.783-5.753 4.47-9.806.422.533.719 1.037.649 1.484-.282 1.747-.751 3.464-.985 5.209-.141 1.021.03 2.085.061 3.128l3.164-.569Zm170.043 64.247 22.083 1.701v.432c-.554.06-1.108.17-1.662.176-4.447.043-8.897-.028-13.339.141-2.682.094-4.882-1.002-7.082-2.45ZM372.08 240.592l5.321 3.104-6.836 6.629c.47-3.019.962-6.188 1.515-9.733ZM247.401 32.972l-16.642-2.393c1.172-.79 3.798.935 4.544-1.999 4.33.268 7.903 2.558 12.098 4.393Zm258.352 276.42 14.375-.575c.029.621.06 1.28.093 2.026-4.931.872-9.584.048-14.468-1.451Zm-205.675-51.801 12.472-9.118c-2.55 5.252-6.989 7.901-12.465 9.118h-.007Zm44.715-146.741-.384.264-13.741-19.967c6.11 5.616 9.901 12.809 14.132 19.703h-.007ZM240.724 258.151c-1.806 2.053-3.425 2.357-5.501 1.267a27.835 27.835 0 0 0-3.314-1.505c-1.675-.616-3.392-1.126-5.093-1.675 4.563.95 9.375.183 13.915 1.913h-.007Zm209.356 25.431 13.013 7.856c-4.982-1.525-10.216-2.62-13.013-7.856ZM182.527 29.045c-7.217.845-15.598.301-18.415-1.277 6.202-.63 12.236 1.544 18.415 1.277Zm141.165 179.993c.468.423.703.528.763.704.647 1.785 1.331 3.562 1.829 5.39.09.328-.57 1.22-.933 1.25-1.011.08-2.048-.155-3.271-.282l1.612-7.062Zm112.122 68.415c3.668.264 10.432 4.745 12.169 8.042l-12.169-8.042ZM326.06 223.069c-4.407.204-3.48 3.661-4.138 6.154v-9.417l.422-.163c1.011 1.382 3.76.84 3.716 3.422v.004Zm-74.732 27.712c-3.707 1.344-6.523 1.395-8.62-1.461 3.06-.419 5.904-.051 8.62 1.457v.004Zm65.905-180.536.309-.228c2.845 3.827 5.704 7.642 8.507 11.499.166.23-.107.777-.239 1.54l-8.577-12.81Zm6.843 158.854c.14-2.078-.432-3.736 1.637-4.482.19 1.234.659 1.94 2.005 1.126.157.77.282 1.356.441 2.168l-4.083 1.188Zm-70.278 21.951c1.488 2.252 1.488 2.252 1.066 4.083l-6.11-1.597c1.822-1.05 4.275.352 5.044-2.486Zm-67.95-66.578 3.571-6.009c.115.704.126 1.556.401 2.309.595 1.639-.306 2.462-1.56 3.041-.733.339-1.577.446-2.412.659Zm141.433 27.137a5018.38 5018.38 0 0 0 3.898 2.968l-1.794 2.723c-.302-.169-1.094-.352-1.185-.713-.413-1.616-.626-3.281-.919-4.978Zm132.021 42.606-.44.363-10.817-11.805.436-.399 10.821 11.841Zm-227.38-3.942c-.079-.178-.156-.357-.233-.534.505-.173 1.005-.477 1.517-.496 1.524-.057 3.068.141 4.576-.026 1.969-.21 3.024.906 4.236 2.393-1.318-.245-2.769-.083-3.396-.726-1.147-1.176-2.358-.845-3.589-.845-1.036-.014-2.074.146-3.111.232v.002Zm31.763-13.425-3.677 4.262c.282-2.147.518-4.003.784-6.061l2.893 1.799Zm-48.533-58.22c3.301-.178 5.973.573 8.868 2.236-.703.033-.966.087-1.215.052-2.225-.326-4.458-.627-6.667-1.039-.324-.061-.545-.668-.986-1.249Zm124.223 42.027c-2.265-.829-4.546-1.619-6.78-2.526-.409-.167-.627-.808-1.108-1.47 3.584.13 5.62 2.278 7.888 3.996ZM260.661 37.206c3.3.057 7.442 2.088 10.397 5l-10.397-5Zm-14.128 173.03c-1.353-2.721-2.706-5.441-4.143-8.334 3.686 1.761 3.33 5.361 4.143 8.322v.012Zm-49.779-41.341c-1.138-2.375-2.876-4.576-2.3-7.721 2.017 2.378 1.889 5.122 2.3 7.708v.013Zm-5.529 5.986c.395-2.266-.253-4.716 1.319-6.731-.408 2.249 1.463 4.915-1.319 6.719v.012Zm34.846 9.454c0 .082-.011.162-.018.244-1.318.331-2.684.536-3.939 1.021-1.561.599-2.16-.102-2.636-1.579l6.593.314Zm-33.523-36.292c.529 2.524 1.003 4.796 1.49 7.124-1.862-.29-2.163-1.811-1.49-7.137v.013Zm21.706 37.082c2.193-1.548 2.873-1.282 3.913 1.464l-3.913-1.464ZM369.82 241.69l-1.583-1.989-1.806-2.275c4.18 2.08 4.251 2.173 3.384 4.251l.005.013Zm-244.792-50.025c-.824-2.142-.643-3.266.613-4.145.913 2.997.861 3.406-.613 4.145Zm166.225 68.65.234.396c-.618 1.144-3.017 2.438-5.505 2.723l5.271-3.119Zm23.437-20.634 2.835-3.47.459.245c-.563 1.175-1.079 2.372-1.723 3.498-.073.128-.834-.136-1.564-.273h-.007Zm130.082 46.32.184-.34 8.158 4.302-.292.546-8.05-4.508Zm-315.741-64.137-1.702 2.325c-.67-.514-1.342-1.027-2.014-1.541.055-.122.108-.246.162-.368l3.554-.416Zm211.171 30.829 1.436 2.779-3.809-1.48 2.373-1.299Zm-70.833 20.875.107.304-7.255 2.73-.177-.496 7.325-2.538Zm206.913 26.108.14-.59 4.956 1.379-.132.485-4.964-1.274Zm99.962-3.113.27.592c-1.225.909-2.783.904-4.301 1.027l4.031-1.619Zm-223.079-49.507c-1.417-.141-2.039-1.432-1.507-2.903l1.507 2.903Zm-24.213-23.935 1.266.683v3.551l-.293.032c-.295-1.289-.593-2.58-.976-4.259l.003-.007Z" fill="#000"/><path d="M329.876 112.498c1.058 2.131 2.121 4.261 3.173 6.396.501 1.016 1.088 1.62 2.068.515 3.54 5.183 6.832 10.53 10.657 15.462 4.475 5.772 7.784 12.089 10.482 18.802.494 1.229 1 2.467 1.663 3.606.299.515.996.798 1.513 1.186.025-.619.26-1.326.042-1.842-1.42-3.37-3.187-6.618-4.36-10.06-1.601-4.678-4.197-8.91-5.704-13.617-1.516-4.738-3.135-9.444-4.782-14.139-.181-.521-.816-.882-1.239-1.317-.141.641-.535 1.366-.362 1.909 1.444 4.539 2.992 9.046 4.51 13.561.179.532.366 1.062.222 1.766-1.125-1.589-2.277-3.157-3.366-4.77-2.194-3.254-4.381-6.513-6.495-9.819-.345-.539-.412-1.325-.422-1.999-.048-3.022.07-6.074-1.356-8.86-.238-.463-.985-.665-1.504-.986-.022.564-.157 1.158-.046 1.69.409 1.971.901 3.926 1.363 5.886l-.649.227c-1.171-1.847-2.25-3.759-3.533-5.529-5.938-8.215-9.511-17.8-15.178-26.164-3.033-4.475-6.155-8.89-9.269-13.309a7.186 7.186 0 0 0-1.657-1.7c-.339-.242-.934-.122-1.407-.165.068.467-.032 1.082.228 1.38 8.123 9.246 13.874 20.007 19.713 30.89-1.506.574-1.149 1.446-.444 2.534a81.227 81.227 0 0 1 3.405 5.746c.384.712.494 1.591.647 2.409 1.027 5.49 3.39 10.466 5.975 15.337 2.736 5.15 5.601 10.233 8.413 15.346.178.324.336.704.611.917.251.194.798.38.947.253.263-.221.484-.715.422-1.04-.091-.5-.422-.956-.672-1.424-3.846-7.321-7.765-14.597-11.496-21.973-1.109-2.189-1.688-4.646-2.512-6.981l.399-.124ZM315.396 102.969c.367.615.671 1.283 1.125 1.82.208.245.81.414 1.066.282s.407-.688.373-1.038c-.038-.395-.325-.771-.518-1.148-4.265-8.355-8.427-16.763-12.852-25.031-1.513-2.826-3.706-5.284-5.55-7.937-2.723-3.92-5.409-7.864-8.12-11.794-.239-.346-.484-.736-.824-.951-.26-.165-.772-.228-.995-.076-.222.152-.344.657-.281.953.09.388.39.737.632 1.081 1.557 2.212 3.263 4.334 4.65 6.648 1.859 3.097 3.902 6.195 5.099 9.574 2.04 5.747 5.485 10.688 8.499 15.836 4.002 6.821 6.442 14.124 8.507 22.137-.539-.715-.832-1.067-1.086-1.448a8607.566 8607.566 0 0 1-7.824-11.801c-.088-.134-.141-.331-.265-.39-.465-.221-.952-.4-1.43-.593 0 .525-.141 1.09.014 1.566.17.537.578 1.005.904 1.488 6.377 9.451 12.768 18.894 19.173 28.328.326.477 1.125.632 1.703.936-.104-.656-.012-1.441-.344-1.95-2.119-3.238-4.403-6.373-6.47-9.639a19.028 19.028 0 0 1-2.051-4.558c-1.073-3.487-1.969-7.029-2.931-10.551-.151-.549-.282-1.103-.422-1.655l.218-.089ZM51.154 93.532c-.724-1.76-1.377-3.555-2.214-5.261-.308-.628-1.049-1.045-1.592-1.558l-1.193 1.6-1.835-.732c-.58-3.178-1.147-6.565-1.857-9.923-.14-.662-.844-1.205-1.287-1.802-.519.538-1.125 1.016-1.525 1.634-.258.409-.27 1.02-.28 1.54a630.08 630.08 0 0 0 .016 9.232c-.01.584.075 1.165.253 1.72.114.32.535.53.818.789.263-.33.686-.633.755-1.002.124-.663.035-1.367.125-2.063.487 1.06 1.31 1.981.481 3.347-.436.718-.55 1.734.592 2.302.253.125.422.671.422 1.019-.035 1.38.369 2.08 1.815 1.359.765 1.043.901 2.881 2.932 1.85.49 1.254.865 2.415 1.407 3.498.188.377.77.563 1.173.831.216-.423.59-.831.616-1.267.042-.718-.14-1.448-.089-2.214.502 1.314.985 2.635 1.51 3.942.444 1.111 1.087 1.542 2.11.355 1.527 3.116 3.012 6.153 4.509 9.183.185.377.363.803.666 1.065.704.604 1.37.447 1.462-.498.081-.822-.214-1.674-.218-2.515 0-1.041-.537-1.353-1.469-1.45-.219-.024-.421-.563-.562-.895-1.899-4.308-3.761-8.633-5.71-12.919-.251-.556-.93-.92-1.406-1.371l-.425.204Zm-10.127-13.26c1.135 2.3 1.117 4.083 0 4.389v-4.389ZM27.222 44.356c-.742-.173-1.34-.458-1.875-.368-.23.038-.328.855-.543 1.481-.883-.853-1.782-1.8-2.774-2.638-.373-.314-.962-.376-1.452-.552.037.563-.127 1.256.141 1.65.903 1.31 1.97 2.509 2.962 3.75l.545-.351-1.343 1.07c-1.677-1.743-3.248-3.462-4.932-5.069-.39-.371-1.159-.343-1.755-.5.18.582.192 1.323.562 1.718 1.59 1.676 3.289 3.247 5.102 5.007-.688.335-1.038.584-1.424.671-.454.104-.94.07-1.406.093.149-.355.434-.718.422-1.064-.028-.513-.14-1.127-.447-1.495-.704-.845-1.593-1.55-2.344-2.368-.75-.82-1.415-1.596-2.353-.207-.496-.564-.823-1.079-1.287-1.398-.575-.396-1.266-.621-1.907-.92v2.195c.306-.208.237-.12.173-.124-.66-.035-1.318-.086-1.978-.13.334.562.563 1.241 1.023 1.676.866.825 1.863 1.51 2.702 2.403-1.287-.659-2.601-1.267-3.842-2.007-.3-.18-.483-.763-.498-1.169-.04-1.163.123-2.337.022-3.492-.048-.529-.526-1.02-.81-1.528-.355.413-.735.81-1.061 1.247-1.145 1.53-1.407 3.309-1.182 5.128.082.666.479 1.5 1.003 1.864 1.386.954 2.954 1.648 4.384 2.534.636.394 1.053 1.194 1.71 1.484.66.29 1.516.228 2.287.256.935.032 1.873.042 2.806-.014 1.431-.086 2.924-.019 4.271-.422 1.501-.444 2.868-1.335 4.296-2.03.281-.142.585-.413.858-.388 2.165.2 2.11-1.237 2.15-2.731.038-1.494.272-2.957.313-4.434.011-.444-.338-.898-.522-1.348-.39.269-.883.461-1.143.822-.393.557-.622 1.22-.854 1.698ZM221.602 45.388c-.463-.224-.921-.617-1.389-.63-.704-.018-1.688 0-2.044.433-.293.351-.04 1.47.34 1.956.224.282 1.173 0 2.183-.044l22.86 14.5-.131.294c-1.37-.502-2.739-1.007-4.11-1.505-.944-.343-1.871-.802-2.846-.965-.647-.108-1.631-.008-1.977.406-.346.414-.374 1.505-.068 2.013.751 1.25 1.649 2.476 2.722 3.453a18.52 18.52 0 0 0 4.037 2.788c.958.487 2.166.48 3.261.694.06-.156.119-.312.176-.47.892 1.047 1.733 2.144 2.699 3.114.33.33.974.342 1.475.499-.031-.52.14-1.193-.126-1.532a43.674 43.674 0 0 0-3.335-3.832c-1.078-1.106-1.63-1.01-2.797.33-2.441-1.486-4.96-2.883-6.657-5.877 2.457.902 4.565 1.702 6.692 2.446 1.145.402 2.305.845 3.494 1.01.666.096 1.406-.314 2.11-.497-.282-.63-.382-1.49-.86-1.852-1.941-1.465-3.886-2.988-6.031-4.106-6.248-3.254-10.942-8.472-16.43-12.681-1.345-1.032-2.65-2.126-4.066-3.051-.497-.324-1.266-.225-1.918-.32.311.586.525 1.267.961 1.733.526.572 1.241.972 1.874 1.445l-.099.248ZM263.762 68.966c-1.212.646-1.425 1.309-.598 2.207 9.143 9.943 15.371 21.787 21.747 33.532.329.605.576 1.276 1 1.801.282.343.812.481 1.23.711.094-.508.422-1.127.243-1.508-.91-1.912-1.944-3.766-2.954-5.632-4.743-8.77-9.678-17.42-15.859-25.378 1.65-.564 1.156-1.408.39-2.253-4.361-4.776-8.676-9.599-13.129-14.287-2.993-3.151-6.159-6.139-9.316-9.13-.91-.862-2.017-1.548-3.114-2.167-.305-.172-.901.169-1.366.274.165.4.221.922.51 1.183 2.868 2.582 5.893 5 8.641 7.7 4.234 4.167 8.278 8.512 12.575 12.947ZM189.267 46.206c-4.754-2.053-10.043-3.845-15.806-3.534-.84.043-1.672.19-2.476.438-.272.086-.593.671-.536.958.052.262.613.648.898.607 9.596-1.334 17.475 2.983 25.283 7.592.764.45 1.777 1.738 2.532.44.656-1.135-.899-1.432-1.603-1.919-1.126-.782-2.392-1.372-3.534-2.133-.671-.445-1.228-1.06-1.837-1.599l.175-.503c1.503.102 3.094-.07 4.501.354 4.24 1.279 8.44 2.695 12.598 4.247 2.183.815 3.882 2.325 4.721 4.66.171.478.806.789 1.226 1.178l1.01-1.69c4.079 2.185 8.342 4.453 12.586 6.758 1.068.581 2.031 1.364 3.12 1.895.509.248 1.205.115 1.816.156-.282-.535-.422-1.306-.871-1.567-3.924-2.3-7.867-4.573-11.877-6.717-2.033-1.085-4.22-1.888-6.33-2.816a.85.85 0 0 1-.251-.183c-4.798-4.892-11.265-5.982-17.474-7.602-1.353-.354-2.847-.397-4.245-.265-1.083.09-2.108.693-3.626 1.245ZM87.52 27.54c-3.299-1.028-5.71 1.146-8.385 2.333-.203.09-.383.813-.267.925.297.281.786.58 1.162.536a28.701 28.701 0 0 0 4.2-.728c1.053-.281 1.718 0 2.303.835.563.794.937 1.549.089 2.393-.525.531-.927 1.189-1.473 1.69-1.1 1.017-.756 3.035.802 4.397-.367.704-.788 1.377-1.087 2.112-.422 1.036-.546 1.997.97 2.252.175.03.282.389.442.583.264.328.541.645.814.967.3-.255.78-.456.871-.771.703-2.423 1.324-4.871 1.992-7.304.14-.5.378-.972.562-1.457.327-.837 1.156-1.727-.337-2.343-.184-.076-.221-.642-.23-.986-.032-1.061.015-2.124-.026-3.184-.162-4.217-1.929-5.998-6.108-5.53-2.088.234-4.183 1.102-6.091 2.052-1.734.862-2.234 2.966-1.457 4.705.165.375.728.57 1.11.845.176-.389.508-.778.507-1.166-.018-2.576.215-3.146 2.704-3.864 1.728-.497 3.578-.66 5.382-.747.563-.026 1.166.689 1.752 1.063l-.202.392ZM194.353 58.675c-.361-.473-.624-1.202-1.096-1.378-6.477-2.434-12.96-4.859-19.493-7.135-2.331-.811-4.782-1.267-7.212-1.794-2.995-.642-5.766.282-8.439 1.495-.451.203-.695.865-1.035 1.314.601.077 1.229.308 1.798.206 2.264-.41 4.568-1.49 6.751-1.268 3.21.326 6.355 1.462 9.473 2.429 2.054.638 4.012 1.587 6.48 2.585-.788.15-1.1.215-1.413.266-1.662.265-2.3 1.329-1.587 2.85.205.439.792.705 1.204 1.041.176-.471.378-.933.516-1.407.051-.178-.052-.398-.169-1.111 2.196.378 4.319.383 6.134 1.126 4.446 1.83 8.745 4.011 13.122 6.008.716.325 1.559 1.407 2.258.167.13-.23-.787-1.297-1.407-1.663-2.003-1.185-4.09-2.226-6.147-3.322.086-.141.173-.276.262-.409ZM161.196 115.171c.346.441.618.986 1.061 1.289.371.249 1.003.366 1.406.219.237-.086.46-.892.32-1.212-1.089-2.482-2.309-4.884-4.866-6.245a3.776 3.776 0 0 1-1.138-1.027c-3.883-5.033-7.736-10.084-11.623-15.12-.581-.752-1.192-1.508-1.909-2.122-.356-.306-.985-.292-1.491-.423.053.517-.082 1.177.187 1.527 4.293 5.585 8.662 11.112 12.94 16.703.678.884 1.083 1.992 1.531 3.034 1.835 4.271 3.619 8.565 5.463 12.834a29.335 29.335 0 0 0 1.938 3.821c.314.507 1.028.766 1.56 1.138-.016-.662.172-1.418-.08-1.971-1.628-3.564-3.354-7.081-5.037-10.619-.241-.504-.422-1.033-.636-1.548l.374-.278ZM291.861 82.086c.246-.487.537-.86.595-1.267.034-.228-.281-.563-.503-.765-4.413-4.056-7.315-9.37-11.275-13.728-2.918-3.21-5.604-6.572-8.351-9.9-2.564-3.108-5.019-6.305-7.546-9.443-.393-.487-.855-1.01-1.407-1.249-.332-.14-1.094.096-1.281.4-.173.282.032.985.305 1.308.677.783 1.605 1.361 2.228 2.178 6.014 7.884 11.912 15.846 18.014 23.652 1.768 2.263 4.079 4.097 6.146 6.13.642.634 1.259 1.293 1.916 1.91.27.246.602.406 1.159.774ZM374.156 167.524c.361-.593.703-.927.748-1.298.042-.314-.233-.683-.401-1.01-4.269-8.34-8.501-16.7-12.833-25.007-1.958-3.755-4.095-7.416-6.228-11.076-.228-.391-.974-.48-1.479-.704 0 .531-.182 1.158.033 1.577a4634.757 4634.757 0 0 0 14.065 27.225c1.548 2.956 3.203 5.854 4.84 8.761.27.469.695.853 1.255 1.532ZM349.99 209.093c.485.441.889.91 1.385 1.242 5.818 3.884 11.655 7.743 17.476 11.622a5956.3 5956.3 0 0 1 15.587 10.441c.44.294.868.658 1.357.81.32.1.915 0 1.068-.234.153-.234.045-.804-.141-1.097-.218-.331-.647-.528-.998-.763a30864.763 30864.763 0 0 0-33.476-22.3c-.474-.315-1.134-.375-1.722-.471-.111-.017-.283.381-.536.75ZM129.882 173.761c-.892-4.835-1.571-9.395-2.594-13.875-1.988-8.718-4.17-17.392-6.274-26.083-.05-.204-.066-.453-.194-.598-.337-.384-.725-.722-1.093-1.078-.19.468-.616.985-.532 1.398a123.112 123.112 0 0 0 1.663 7.109c2.853 10.689 5.415 21.441 7.021 32.402.013.212.074.419.179.605.301.423.651.797.984 1.193l.84-1.073ZM207.362 86.74c.26-.177.718-.355.703-.51-.019-.422-.105-1.03-.393-1.224-1.829-1.243-3.597-2.765-5.634-3.495-3.917-1.407-7.994-2.373-12.02-3.47-5.908-1.61-11.499-3.975-16.693-7.232-.985-.614-1.795-1.489-2.76-2.135-.302-.203-.844-.052-1.276-.063.031.433-.111 1.059.121 1.267 1.099.986 2.223 1.984 3.475 2.757 6.786 4.198 14.217 6.74 21.971 8.447 4.22.926 8.292 2.223 11.619 5.18.233.195.547.29.887.478ZM158.597 142.334l3.574 8.461c.207.487.368 1.029.703 1.408.217.248.736.386 1.069.32.197-.041.422-.58.404-.887-.017-.403-.239-.803-.394-1.194-2.556-6.45-5.097-12.903-7.705-19.332-.201-.495-.876-.801-1.331-1.194-.115.563-.422 1.155-.308 1.664.252 1.175 1.09 2.253.141 3.52-.177.232.07.815.169 1.226a11173.7 11173.7 0 0 0 3.797 15.898c.008.106.036.21.085.304.422.506.856.999 1.285 1.497.141-.662.524-1.371.399-1.971-.66-3.203-1.448-6.379-2.19-9.564l.302-.156Z" fill="#000"/><path d="M338.249 142.686c.052-.548.31-1.183.123-1.631-.844-2-1.829-3.942-2.714-5.92-4.173-9.386-8.311-18.787-12.518-28.158-.353-.785-.382-2.265-1.858-1.74-.177.064-.028 1.69.307 2.451a5390.004 5390.004 0 0 0 14.95 33.508c.257.576.688 1.076 1.037 1.609l.673-.119ZM259.554 208.55c-.9-4.18-1.771-8.045-2.559-11.927-1.617-7.967-3.16-15.948-4.818-23.907-.181-.863.092-2.654-1.487-2.227-1.388.373-.328 1.737-.159 2.597 1.802 9.17 3.657 18.328 5.512 27.487.525 2.587 1.052 5.175 1.675 7.743.109.444.704.77 1.071 1.152.299-.361.599-.711.765-.918ZM446.519 246.911c.537.774.757 1.194 1.069 1.526 7.939 8.43 14.64 17.838 21.401 27.196.155.215.273.517.484.618.46.218.969.332 1.458.49-.024-.524.113-1.126-.105-1.549-.408-.791-1.024-1.474-1.547-2.203-6.33-8.758-12.659-17.52-20.075-25.412-.325-.347-.63-.821-1.035-.949-.384-.128-.885.129-1.65.283ZM411.635 257.633c.281-.609.612-.985.585-1.35-.027-.365-.36-.748-.623-1.07a13826.816 13826.816 0 0 0-20.072-24.466 21.88 21.88 0 0 0-2.391-2.554c-.346-.304-.996-.261-1.506-.376.07.514-.044 1.177.236 1.517a5677.392 5677.392 0 0 0 22.197 26.831c.395.46.89.839 1.574 1.468ZM51.125 36.217c-.719-2.21-4.833-3.485-6.892-1.814-2.617 2.125-2.701 5.414-.194 7.714.117.104.242.198.375.282 1.491.949 6.752-.321 7.648-1.84.292-.496.714-.948.869-1.481.192-.665.422-1.511.16-2.055-.2-.414-1.124-.488-1.966-.806Zm-4.993 4.765-.304.245c-.353-.461-.844-.877-1.027-1.398-.281-.8-.366-1.676-.612-2.92l2.298-2.027-.355 6.1Z" fill="#000"/><path d="m46.129 40.962-.304.245c-.353-.462-.844-.877-1.027-1.398-.281-.8-.366-1.676-.612-2.92l2.299-2.027-.356 6.1Z" fill="#fff"/><path d="M36.305 84.504c-2.58-1.99-3.17-4.645-3.013-7.581.023-.422.095-.873-.015-1.267-.097-.346-.422-.63-.64-.94-.317.281-.898.543-.907.829-.062 1.788-.103 3.59.059 5.368.157 1.729.523 3.444.893 5.144.107.493.544.913.83 1.366l1.612-1.139c.437 1.573.965 3.212 1.33 4.887.163.746.055 1.467 1.114 1.59.306.036.52.595.844.823.35.25.774.393 1.165.581.124-.46.353-.923.34-1.38-.011-.393-.254-.803-.465-1.166-1.944-3.333-1.396-6.95-1.228-10.527.04-.874.67-2.212-.74-2.302-1.232-.079-.924 1.267-.985 2.112-.094 1.204-.133 2.411-.194 3.602ZM414.24 201.039l-1.435-.335c-.063.491-.302 1.039-.163 1.462 3.358 10.212 8.063 19.673 15.597 27.506.386.402 1.126.462 1.7.682-.141-.634-.088-1.463-.473-1.873-7.261-7.716-11.873-16.917-15.171-26.868a3.727 3.727 0 0 1-.097-.622l.042.048ZM75.116 105.585c.294.252.549.635.89.741 5.173 1.603 9.035 5.209 13.027 8.588 3.758 3.179 7.408 6.486 11.112 9.735.357.314.687.725 1.109.88.367.141.844-.025 1.266-.055a7.825 7.825 0 0 0-.147-1.161c-.05-.178-.275-.314-.435-.451-5.957-5.089-11.825-10.286-17.921-15.205-2.054-1.656-4.663-2.638-7.073-3.815-.455-.221-1.172.095-1.769.164-.018.193-.037.386-.059.579ZM281.918 84.787c.239.564.373 1.023.619 1.418a7310.474 7310.474 0 0 0 16.443 26.242c.251.398.991.487 1.503.719-.045-.602.12-1.338-.164-1.789-4.389-6.935-8.862-13.82-13.251-20.754-1.189-1.875-2.148-3.894-3.286-5.803-.222-.372-.764-.608-1.207-.756-.124-.047-.428.46-.657.724ZM282.62 77.247c.205.386.343.733.553 1.026 5.727 8.005 10.007 16.832 14.487 25.539.244.472.387 1.032.737 1.397.351.365.892.511 1.351.756.067-.508.356-1.126.17-1.506-1.279-2.675-2.554-5.36-4.022-7.933-3.59-6.298-7.28-12.541-10.944-18.796a4.69 4.69 0 0 0-1.007-1.21c-.184-.153-.641-.15-.872-.028-.231.123-.301.486-.453.755ZM123.284 65.767c.288 1.451.478 2.931.896 4.343a20.024 20.024 0 0 0 1.539 3.648c.24.458.865.704 1.315 1.057.083-.6.374-1.267.208-1.79-.478-1.508-1.144-2.957-1.732-4.43-.378-.947-.52-1.69.667-2.345.985-.534.591-1.388-.27-1.82-.893-.447-1.854-.77-2.802-1.097a5753.69 5753.69 0 0 0-16.48-5.685c-.4-.141-.816-.351-1.214-.33-.504.026-.997.255-1.494.397.356.422.632 1.066 1.08 1.224 5.529 1.954 11.083 3.833 16.629 5.74.693.237 1.374.512 2.06.77l-.402.318ZM150.129 116.724c.508 1.127.88 2.129 1.386 3.051 1.407 2.557 2.972 5.025 4.269 7.631 2.408 4.835 4.67 9.743 6.989 14.621.228.477.352 1.03.672 1.429.216.266.763.515 1.034.422.272-.093.501-.652.483-.985-.023-.454-.266-.911-.479-1.335a10235.38 10235.38 0 0 0-9.916-19.902c-.852-1.706-1.688-3.417-2.617-5.084-.183-.331-.704-.612-1.083-.64-.224-.03-.487.502-.738.792ZM145.851 130.662c1.613 6.287 2.772 12.349 5.865 17.748.231.404.862.58 1.307.862.1-.498.447-1.126.263-1.477-2.623-4.909-3.988-10.227-5.204-15.601-.128-.563-.294-1.156-.605-1.627-.214-.323-.736-.658-1.075-.617-.274.034-.484.618-.551.712ZM156.58 82.353c.585.513.835.845 1.17 1.006 4.25 2.024 8.506 4.034 12.77 6.028.383.18.765.445 1.165.48.399.035.827-.169 1.242-.267-.184-.438-.348-.884-.563-1.304-.057-.108-.281-.128-.422-.197-3.954-1.915-7.903-3.838-11.865-5.734-.615-.295-1.279-.563-1.944-.642-.391-.045-.827.323-1.553.63ZM205.2 78.017c.225-.532.555-.947.517-1.323-.038-.355-.442-.689-.723-.997-3.062-3.364-6.116-6.736-9.227-10.053-.346-.368-1.038-.413-1.57-.608.062.563-.092 1.32.217 1.664 3.164 3.555 6.401 7.04 9.632 10.543.236.255.59.402 1.154.774ZM167.139 89.376c-.235.652-.563 1.097-.481 1.46.086.422.46.844.816 1.126 3.442 2.795 6.892 5.581 10.387 8.307.318.247 1.003.022 1.518.017-.184-.486-.228-1.152-.577-1.425-2.495-1.956-5.082-3.802-7.577-5.751-.993-.779-1.817-1.769-2.736-2.644-.329-.319-.71-.58-1.35-1.09ZM256.121 57.725c.33.374.585.763.929 1.04 3.384 2.715 6.764 5.438 10.201 8.085.422.325 1.168.23 1.766.328-.195-.537-.23-1.267-.61-1.579a433.35 433.35 0 0 0-10.16-8.136c-.399-.312-1.035-.359-1.574-.432-.122-.017-.302.363-.552.694ZM193.29 76.775c.257-.167.693-.307.717-.498.044-.362-.025-.884-.264-1.107-.577-.535-1.278-.939-1.932-1.39-2.97-2.04-5.924-4.108-8.934-6.088-.474-.313-1.208-.227-1.821-.324.274.587.388 1.408.843 1.727 3.411 2.43 6.892 4.766 10.351 7.123.337.204.684.39 1.04.557ZM154.471 87.553c.197.184.487.542.854.78 3.247 2.097 6.492 4.198 9.779 6.23.444.274 1.125.171 1.688.243-.231-.555-.3-1.349-.715-1.626a340.824 340.824 0 0 0-9.75-6.274c-1.048-.654-1.833-.416-1.856.647ZM31.603 80.993c-.361-1.58-.667-3.176-1.103-4.734-.267-.95-.762-1.755-1.884-.724a.547.547 0 0 1-.442.07c-1.377-.379-1.9.023-1.425 1.353.6 1.674.826 3.638 2.75 4.55.165.077.174.437.32.614.314.386.67.74 1.01 1.107.224-.469.491-.925.657-1.408.078-.225-.042-.518-.073-.78l.19-.048ZM169.138 110.542c.171-.787.434-1.29.329-1.689-.125-.478-.576-.869-.878-1.303-1.85-2.645-3.665-5.314-5.576-7.915-.319-.434-1.039-.573-1.575-.845.028.576-.156 1.296.118 1.705 2.038 3.027 4.161 5.999 6.282 8.971.228.316.615.514 1.3 1.076ZM213.575 175.195c-.656-1.983-1.222-3.801-1.886-5.585-.1-.266-.661-.36-1.01-.535-.18.383-.59.827-.505 1.136a68.224 68.224 0 0 0 1.688 5.293c.105.291.693.667.927.591.327-.107.541-.594.786-.9Z" fill="#000"/></g><defs><clipPath id="clip0_203_1198"><path fill="#fff" transform="matrix(-1 0 0 1 591.003 0)" d="M0 0h591v313H0z"/></clipPath></defs></svg>