<svg width="304" height="343" fill="none" xmlns="http://www.w3.org/2000/svg"><g clip-path="url('#clip0_213_2160')"><path d="M240.037 64.806c.429-.39.887-.748 1.353-1.096 2.464-1.92 5.284-3.244 8.039-4.683.4-.23.785-.497 1.172-.735a.504.504 0 0 0 .063-.709c-.351-.358-.895-.092-1.327-.063-2.733.523-5.54.918-8.075 2.093.261-.5.546-.991.839-1.48 1.246-2.093 2.836-3.925 4.285-5.858.346-.554 1.437-2.192.134-2.218-1.698.58-3.103 1.883-4.379 3.11a26.612 26.612 0 0 0-5.651 8.808c-.69 1.743 1.952 4.262 3.547 2.83ZM246.316 64.785c-1.57 0-5.12.55-5.554 2.315a1.762 1.762 0 0 0 1.308 2.093c1.159.24 2.056-.814 3.097-1.151 1.455-.586 2.996-.806 4.513-1.146a.848.848 0 0 0 .691-.64c.238-1.646-2.996-1.366-4.055-1.471ZM212.303 193.646c-6.211-20.243-11.668-35.486-28.514-49.592-1.468-1.308-3.422 1.01-1.968 2.261 8.398 7.037 15.521 15.716 19.924 25.804 4.834 12.556 9.067 24.645 13.404 37.309 1.452 3.401 2.339 2.399 1.57-.756-.126-.785-2.802-10.082-4.416-15.026ZM67.356 69.394a17.448 17.448 0 0 0-3.492-.408c-.92-.042-4.348.314-3.712 1.776a.75.75 0 0 0 .261.312c.349.238.906.125 1.309.157.567.05 1.131.133 1.69.248 1.111.22 2.202.523 3.314.746 1.862.369 2.493-2.355.63-2.83ZM201.889 105.892c6.432-1.187 9.71-7.246 9.527-13.399-.094-3.466-1.57-7.097-4.008-9.54a8.071 8.071 0 0 0-1.663-1.277c-3.221-1.91-7.613-1.766-10.891-.186-6.226 2.967-8.175 10.224-6.077 16.481 1.873 5.494 7.333 8.973 13.112 7.921Zm-5.413-19.455c3.401 1.18 4.018 6.21.691 7.882a3.722 3.722 0 0 1-3.791-.261 4.716 4.716 0 0 1-1.685-2.03c-1.517-3.197 1.274-6.815 4.785-5.59Z" fill="#000"/><path d="M196.457 86.448c3.401 1.18 4.018 6.21.691 7.882a3.722 3.722 0 0 1-3.791-.262 4.707 4.707 0 0 1-1.684-2.03c-1.518-3.196 1.273-6.814 4.784-5.59Z" fill="#fff"/><path d="M69.894 63.48a26.838 26.838 0 0 0-3.793-6.125c-.667-.73-2.535-2.333-3-.627.146 1.046.925 1.922 1.307 2.903a61.458 61.458 0 0 1 1.763 4.277 18.5 18.5 0 0 0-6.54-2.108c-.886-.447-1.642.824-.837 1.394.594.262 1.167.591 1.735.924.567.332 1.208.69 1.792 1.075 1.208.798 2.354 1.687 3.502 2.571.576.44 1.151.882 1.737 1.308.482.348 1.01.866 1.57 1.047.362.118.751.125 1.117.018a1.924 1.924 0 0 0 1.156-.978c.416-.858-.136-2.132-.413-2.964a24.916 24.916 0 0 0-1.096-2.716Z" fill="#000"/><path d="M303.318 171.985c-2.543-3.557-6.953-5.433-6.953-5.433-4.28-3.139-8.719-6.08-13.229-8.894-2.391-1.382-4.842-2.64-7.27-3.953a185.361 185.361 0 0 0-12.892-6.511c-.041-1.706.102-3.38 1.07-4.733.942-.656 2.093-1.072 2.692-2.134 1.015-1.682.063-3.613-.348-5.334a131.633 131.633 0 0 0-1.928-6.313c-1.588-4.941-3.429-9.802-4.881-14.785-.523-2.161-1.612-4.314-1.439-6.572 7.259-.784 4.369-7.097 3.192-11.824-1.45-4.97-2.949-9.917-4.754-14.767-.374-.835-.69-1.745-1.088-2.6a.843.843 0 0 1 .126-.908c.593-.71 1.13-1.491 1.619-2.08 1.031-1.282 2.093-2.564 2.946-3.979 6.937-10.827 8.161-20.81-3.718-28.559-6.333-3.612-22.848.079-24.347.427a.208.208 0 0 1-.193-.052c-.466-.435-.953-.845-1.408-1.256-4.256-3.315-8.925-6.108-13.663-8.675-2.914-1.451-5.907-2.736-8.926-3.96 4.045-5.659 8.795-10.802 13.828-15.594.675-.644 1.358-1.28 2.036-1.92.677-.641 1.383-1.264 1.993-1.965.031-.037.063-.073.092-.112a.22.22 0 0 0 .027-.168.22.22 0 0 0-.098-.138c-.147-.082-.361 0-.502.06a44.623 44.623 0 0 0-4.869 2.697 73.636 73.636 0 0 0-15.889 15.787l-1.633-.64c-.954-.34-1.917-.66-2.877-.966a107.201 107.201 0 0 1 3.78-7.063.581.581 0 0 0-.039-.811c-.607-.492-1.081.322-1.486.696a45.383 45.383 0 0 0-2.093 2.399 40.779 40.779 0 0 0-2.702 4.015 107.483 107.483 0 0 0-4.85-1.258 59.425 59.425 0 0 1 5.755-14.911c.295-.544.602-1.08.902-1.622.524-.942 1.047-1.884 1.622-2.802a31.97 31.97 0 0 1 1.816-2.67c.327-.427.667-.843 1.025-1.246.139-.154.576-.662.244-.821a.755.755 0 0 0-.654.086c-3.03 1.954-5.274 5.088-7.296 8.023a51.86 51.86 0 0 0-6.737 15.236 156.58 156.58 0 0 0-6.016-1.123c-11.662-2.283-23.646-2.616-35.473-1.68-9.912.825-19.816 2.23-29.396 4.953-2.477-6.59-5.789-13.012-10.749-18.071-.262-.285-.523-.714-.903-.628a.633.633 0 0 0-.504.732c.198.688.596 1.308.905 1.957 1.546 3.17 3.254 6.26 4.708 9.47a145.853 145.853 0 0 1 3.043 7.573c-2.058.64-4.099 1.338-6.124 2.093a64.225 64.225 0 0 0-7.552-6.341.512.512 0 0 0-.474.128.511.511 0 0 0-.144.468c.082.24.211.462.379.652 1.285 1.949 2.834 3.696 4.327 5.493.194.241.39.48.584.717a103.76 103.76 0 0 0-7.043 3.14 92.825 92.825 0 0 0-3.225 1.715c-3.291-2.043-6.6-4.096-10.202-5.525a24.1 24.1 0 0 0-6.951-1.488c-.34 0-.756-.092-1.023.178a.554.554 0 0 0-.115.2c-.024.073-.032.151-.024.228a.555.555 0 0 0 .225.39c1.512.689 3.508 1.22 5.136 1.95a38.772 38.772 0 0 1 6.074 3.188c1.308.853 2.616 1.71 3.924 2.57-6.132 3.662-17.697 11.51-18.817 12.266a.225.225 0 0 1-.19.031c-2.02-.583-4.056-1.14-6.12-1.543-6.14-1.512-12.86 1.062-16.219 6.461-3.49 6.41-.523 16.609 3.516 22.832a1.81 1.81 0 0 1 .018 1.936c-.21.338-.4.688-.572 1.047a64.368 64.368 0 0 0-5.347 13.142c-1.11 3.71-2.525 9.397 3.49 8.44-1.228 6.877-3.477 13.54-4.495 20.475-1.426 7.586-3.228 15.157-3.744 22.869a346.116 346.116 0 0 0-10.689 4.682c-8.54 4.102-16.967 8.552-24.59 14.218a78.636 78.636 0 0 0-7.66 6.205c-.384.463-1.815 1.308-1.088 1.954a.575.575 0 0 0 .712-.023c.636-.369 1.222-.808 1.831-1.227 2.093-1.546 4.225-3.05 6.417-4.447a156.17 156.17 0 0 1 17.195-9.739 298.232 298.232 0 0 1 17.718-7.731c-.196 5.418.162 10.81.657 16.196a110.217 110.217 0 0 0-12.973 11.497 61.744 61.744 0 0 0-4.994 5.687c-.573.738-1.133 1.481-1.632 2.266-.18.227-.297.498-.338.785a.359.359 0 0 0 .214.328.361.361 0 0 0 .385-.067c.417-.457.87-.88 1.353-1.266 5.276-4.392 10.325-9.012 15.845-13.119.846-.64 1.695-1.274 2.548-1.902.507 5.083 1.046 10.171 1.245 15.275.144 12.583-1.949 25.061-3.793 37.495a4.35 4.35 0 0 0-.497-.034c-4.709-.045-9.25 1.431-13.603 3.063-5.039 2.268-10.59 4.35-14.454 8.434-3.4 3.858-4.272 8.729-3.597 13.548l1.72 6.278a30.78 30.78 0 0 0 2.973 5.593 79.616 79.616 0 0 1 9.769 22.833c2.966 10.464 6.09 21.239 12.436 30.233 3.241 4.476 7.822 7.696 12.42 10.668.62.931 1.33 1.799 2.12 2.592 2.64 2.76 5.697 5.525 9.663 5.928 2.102.276 4.24-.036 6.176-.9 2.274-1.015 3.443-2.93 3.99-5.146 1.614.113 3.335-.719 4.79-1.308 5.171-2.898 5.422-10.103 5.436-15.384-.01-.175-.024-.349-.04-.523 1.594-.654 2.671-4.953 2.878-6.279.74-4.17.262-8.444-.75-12.53-1.926-7.129-4.673-14.004-6.771-21.083-1.397-4.708-3.296-9.258-4.782-13.94a29.354 29.354 0 0 0-3.299-7.042h-.026s-7.699-12.654-13.122-17.7c-2.81-2.441-5.697-4.984-9.252-6.26l-.113-.045c.06-.379.123-.761.188-1.148 1.533-10.692 3.362-21.396 3.924-32.192.108-7.835-.617-15.657-1.43-23.45 10.142-7.126 20.906-13.355 32.438-17.946a87.67 87.67 0 0 1 3.858-1.384 21.133 21.133 0 0 0-.02 5.468c.462 3.817 1.742 7.641 4.221 10.464a113.966 113.966 0 0 0-3.068 3.55c-3.832 4.622-7.126 9.417-10.375 14.505-1.925 3.085-3.882 6.192-5.182 9.598-.073.21-.346.762 0 .895.225.065.353-.199.478-.348 1.026-1.237 1.887-2.595 2.8-3.924 2.43-3.424 4.97-6.801 7.515-10.158a133.076 133.076 0 0 1 10.135-12.073c.596.417 1.227.781 1.886 1.089 1.904.941 3.361-1.831 1.514-2.852a9.697 9.697 0 0 1-1.13-.56 107.588 107.588 0 0 1 6.31-5.781c3.788-3.288 8.17-6.017 12.402-8.735 1.601-1.211.16-3.743-1.687-2.995-1.127.5-2.111 1.266-3.155 1.915a89.922 89.922 0 0 0-16.271 13.538c-1.115-1.389-1.81-3.105-2.297-5.031a20.77 20.77 0 0 1 .102-9.867c3.275-.939 6.597-1.727 9.94-2.418 3.548-.677 7.116-1.276 10.703-1.7a1.719 1.719 0 0 0-.437-3.401c-2.156.241-4.303.573-6.446.895-4.091.57-8.167 1.308-12.185 2.263a28.705 28.705 0 0 1 2.909-4.85c3.013-.115 6.032-.039 9.048.049 2.541.069 5.082.109 7.623.121a1.938 1.938 0 0 0 1.865-1.935 1.934 1.934 0 0 0-1.865-1.934c-2.422 0-4.847-.032-7.269-.068a204.265 204.265 0 0 0-5.962-.084c3.866-3.733 8.408-6.741 13.025-9.47 2.304-1.363 4.353-3.095 6.487-4.709 1.769-1.402 3.943-2.935 4.435-5.266a.569.569 0 0 0-.361-.544c-.359-.128-.67.147-.937.343-.751.523-1.449 1.135-2.19 1.682-2.521 1.779-5.184 3.364-7.848 4.942-4.23 2.092-8.449 4.306-12.227 7.167-1.637 1.308-3.186 2.742-4.685 4.212a21.015 21.015 0 0 0-1.551 1.81 71.587 71.587 0 0 0-4.186.369c-5.46.639-10.877 1.599-16.26 2.695-5.212 1.101-10.234 2.904-15.27 4.617-2.415.816-4.77 1.708-7.14 2.624a98.494 98.494 0 0 1 1.78-11.003c1.462-6.987 2.558-14.045 4.115-21.009.567-3.636 4.97-14.992-2.046-14.069a97.557 97.557 0 0 1 3.458-10.691c1.047-3.689 3.48-6.292 2.093-10.257-.468-1.264-1.018-2.49-1.528-3.736-1.713-4.364-4.483-13.527-.353-17.085a10.647 10.647 0 0 1 7.396-2.964c2.207.16 4.36.701 6.492 1.271.84.225 1.832.701 2.684.748 2.561.144 4.35-1.226 6.357-2.56 2.744-1.832 5.494-3.637 8.235-5.47 3.14-2.112 6.35-4.168 9.645-6.04a111.087 111.087 0 0 1 9.067 6.94c3.781 3.526 7.027 7.586 10.394 11.51 1.046 1.352 3.38.594 3.471-1.089.097-1.158-.913-1.948-1.517-2.82-.832-1.046-1.732-2.032-2.616-3.021-1.912-2.111-3.856-4.201-5.941-6.145-2.961-2.692-6.278-4.944-9.637-7.113a69.968 69.968 0 0 1 6.44-2.964c.757-.316 1.518-.623 2.281-.923.372.453.739.908 1.102 1.365 2.074 2.718 4.028 5.211 5.818 8.22 2.03 3.249 3.662 6.68 5.509 10.04.201.96.502 1.831 1.031 2.213a1.853 1.853 0 0 0 1.399.311c1.831-.382 1.57-2.265 1.389-3.688-.261-1.523-.583-3.032-.897-4.544-1.29-5.884-2.66-11.772-4.552-17.485 8.722-2.412 17.789-3.867 26.715-4.605 12.849-1.25 25.864-.703 38.515 1.913.989.17 1.972.358 2.953.554a66.618 66.618 0 0 0-.073 22.393l-.047.304a1.902 1.902 0 0 0 1.719 2.056 1.937 1.937 0 0 0 1.734-.811c.097-.092.185-.194.262-.304.421-.549.384-1.208.293-1.852.285-1.514.596-3.024.902-4.53.843-3.801 1.98-7.53 3.401-11.155.488-1.221.996-2.437 1.522-3.65 1.244.382 2.483.794 3.718 1.235a88.159 88.159 0 0 0-6.19 11.087c-.785 1.724-1.569 3.453-2.223 5.232-.212.625-.411 1.253-.633 1.873a1.96 1.96 0 0 0 1.125 2.537 1.961 1.961 0 0 0 2.537-1.125c.387-.84.834-1.65 1.203-2.5 1.047-2.407 2.03-4.848 3.082-7.257a75.798 75.798 0 0 1 4.097-7.662c.167-.278.34-.552.523-.825 4.531 1.787 8.894 3.543 13.341 6.043 2.679 1.528 5.421 2.94 8.11 4.435 2.025 1.124 3.958 2.906 6.341 3.196 2.383.29 4.887-1.083 7.272-1.282 3.645-.476 7.401-.523 10.988.306 4.117 1.285 7.612 4.798 8.813 8.947.957 4.594-1.604 8.916-3.746 12.792a31.226 31.226 0 0 1-3.78 5.232c-1.261 1.418-2.229 2.559-1.832 4.529.806 3.924 2.308 7.819 3.493 11.656 1.36 4.416 2.762 8.827 3.712 13.342-8.685 1.277-2.844 12.033-1.625 17.231 2.012 6.101 4.186 12.149 5.967 18.312-2.877 1.478-3.798 4.207-4.044 7.176a218.155 218.155 0 0 0-5.164-2.143c-5.117-2.061-10.171-4.279-15.382-6.097-5.203-1.745-10.558-3.009-15.863-4.395l-.107-.024c-3.663-7.207-10.747-12.332-18.051-15.73-2.843-1.467-5.852-2.595-8.632-4.185-1.465-.471-7.299-6.279-7.487-2.661 3.277 5.711 10.202 7.542 15.52 10.82 4.921 2.689 9.797 6.017 13.146 10.605-3.556-.622-7.147-1.046-10.726-1.41-2.674-.235-5.352-.437-8.034-.536a2.11 2.11 0 0 0-1.544.592 2.126 2.126 0 0 0-.646 1.523 2.119 2.119 0 0 0 1.358 1.976c.265.102.548.149.832.139 1.062.055 2.125.105 3.184.17 3.291.212 6.919.57 10.249.963a89.13 89.13 0 0 1 7.812 1.206c1.554 3.999 2.27 8.488 1.48 12.627-.125-.076-.248-.154-.376-.228-2.431-1.433-4.955-2.715-7.469-3.997-4.863-2.482-9.773-4.86-14.788-7.019a2.244 2.244 0 0 0-1.667-.107c-1.778.523-1.941 3.234-.261 3.979a337.062 337.062 0 0 1 8.845 3.961c4.868 2.315 9.794 4.538 14.5 7.17a14.49 14.49 0 0 1-2.187 3.359 27.502 27.502 0 0 1-2.483 2.802c-.502-.476-1.001-.957-1.496-1.442a74.515 74.515 0 0 0-10.16-8.632c-2.635-1.832-5.334-3.579-8.003-5.363-.949-.628-1.891-1.272-2.859-1.871a1.772 1.772 0 0 0-2.438.484c-1.114 1.866 1.031 2.781 2.292 3.663 4.591 3.139 9.386 6.003 13.618 9.621 2.179 1.866 4.186 3.924 6.258 5.897-.429.314-.863.622-1.308.915-1.4.892-.934 3.202.696 3.49 1.046 0 2.32-.672 3.586-1.648 1.17 1.062 2.339 2.122 3.477 3.218 3.361 3.327 6.48 6.88 9.702 10.338 1.51 1.627 3.006 3.265 4.395 4.994 2.062 2.6 4.136 5.193 6.365 7.654.549.602 1.046 1.243 1.606 1.832a.838.838 0 0 0 .395.261c1.167.058-1.347-3.647-1.75-4.28-2.43-3.662-4.766-7.377-7.542-10.783-1.439-1.773-2.911-3.523-4.363-5.287-2.072-2.527-4.186-5.025-6.475-7.361a113.251 113.251 0 0 0-3.139-3.016 45.663 45.663 0 0 0 2.972-3.401 17.75 17.75 0 0 0 2.273-3.27c4.929 3.239 9.758 6.749 14.527 10.174 2.987 2.338 5.833 4.855 8.839 7.17a55.9 55.9 0 0 1 6.524 5.695c.374.392 1.083 1.075 1.594 1.308.926.416.29-.96-.074-1.57-.363-.609-3.029-3.848-4-4.769-2.629-2.498-5.341-4.91-7.984-7.395-3.434-3.283-7.233-6.085-11.01-8.965-2.274-1.726-4.57-3.524-6.948-5.187 1.216-4.055 1.119-8.508-.06-12.651a23.344 23.344 0 0 0-.327-1.345c1.708.398 3.4.821 5.106 1.256 2.634.62 5.258 1.289 7.83 2.134 6.299 2.125 12.405 4.761 18.633 7.082 1.047.411 2.093.834 3.139 1.266.037 1.201.095 2.378.097 3.461.223 5.279.262 10.561.393 15.842.261 10.668.92 21.326.763 31.999.066 6.587-.358 13.161-.442 19.745 0 2.439.079 4.885 0 7.325-.074.466-.118.936-.133 1.408a16.37 16.37 0 0 0-5.407 1.985c-4.11 2.415-7.019 6.208-9.734 10.032-1.272 1.9-2.559 3.804-3.723 5.782l-3.626 7.848c-.8 2.2-1.475 4.447-2.072 6.712a94.225 94.225 0 0 1-8.125 22.6c-1.271 2.548-2.616 5.106-3.351 7.871a34.944 34.944 0 0 0-1.216 8.895 49.727 49.727 0 0 0 .651 8.795 41.941 41.941 0 0 0 1.954 8.559 1.888 1.888 0 0 0 1.086 1.107c-.819 6.888.646 13.197 7.5 18.223.355.256.787.382 1.224.358.322 2.558 1.617 5.609 4.552 5.755 5.394-.021 11.087-6.064 14.741-10.359a13.378 13.378 0 0 0 4.578-2.226c2.878-2.043 5.386-4.542 7.678-7.207 4.502-5.311 8.146-11.346 10.987-17.692 2.127-5.075 3.733-10.341 5.358-15.592 2.498-7.785 4.926-15.591 7.361-23.394 1.219-4.016 2.666-8.008 3.184-12.191.06-.575.136-1.734.136-1.734a27.036 27.036 0 0 0-.437-6.278 19.371 19.371 0 0 0-3.563-7.752c-2.075-2.691-4.241-4.083-6.595-5.433-4.322-2.48-10.239-4.466-15.215-4.863a48.876 48.876 0 0 0-2.958-.152c.138-1.462-.045-3.139.065-4.303.018-2.899 0-5.795.123-8.69.547-12.455.343-24.944-.207-37.393-.319-8.853-.368-17.713-.711-26.566v-.376c5.755 2.527 11.395 5.268 17.027 8.039 7.89 4.088 15.11 9.203 22.694 13.864a.468.468 0 0 0 .523.034.37.37 0 0 0 .134-.146c.094-.196-.113-.484-.168-.576Zm-255.485 54.97c7.424 4.803 12.965 11.712 17.213 19.374a83.118 83.118 0 0 1 3.14 6.278 103.13 103.13 0 0 1 2.304 5.525c2.067 5.706 3.644 11.576 5.609 17.318 2.878 8.311 6.605 16.92 5.276 25.898-.062.39-.12.785-.177 1.17-1.167-5.622-3.44-11.011-5.476-16.361-.586-1.554-1.046-2.579-1.585-4.345-.204-.667-.853-1.917-1.695-1.569-.67.261-.591 1.54-.419 2.218.523 1.904.678 3.173 1.308 5.043 2.862 8.16 6.7 16.798 5.104 25.606-.523 3.968-2.184 6.969-6.158 8.253l-.199.071a30.934 30.934 0 0 0-.311-5.193c-.67-5.352-2.755-10.357-4.735-15.327a76.086 76.086 0 0 1-2.807-9.418 18.96 18.96 0 0 0-.625-1.941 90.086 90.086 0 0 0-.353-1.012c-.094-.262-.16-.641-.414-.785a.792.792 0 0 0-.523-.042c-.586.097-.617.673-.61 1.355.016 1.523.348 2.909.73 4.382a219.316 219.316 0 0 0 3.482 12.034c1.588 4.988 3.181 10.097 3.072 15.387-.17 1.716-.448 3.725-1.832 4.894-2.877 1.609-6.833 1.204-9.373-.889-2.093-1.745-4.07-3.681-5.391-6.074-1.358-2.682-2.465-5.494-3.566-8.28-2.244-5.99-4.324-12.625-8.22-17.849-.235-.261-.502-.549-.904-.429-1.366.393.661 4.887.962 5.965 1.42 3.78 2.656 7.623 3.846 11.479a81.112 81.112 0 0 0 2.825 7.549c-.499-.371-.99-.754-1.475-1.148-5.405-4.303-8.633-10.616-11.118-16.931-3.888-9.506-5.533-19.899-9.049-29.56a81.008 81.008 0 0 0-6.116-12.416c-.913-1.491-1.831-3-2.595-4.567a21.682 21.682 0 0 1-1.805-4.91 28.462 28.462 0 0 1-.262-1.369c-1.776-11.306 6.872-13.959 15.932-18.079 2.304-.866 4.669-1.595 6.987-2.396a11.507 11.507 0 0 1 4.185-.651c1.416.059 2.809.373 4.113.926.584.237 1.154.509 1.705.816Zm18.312-86.505a96.914 96.914 0 0 1 10.412-2.407c4.185-.785 8.392-1.51 12.627-1.962a30.005 30.005 0 0 0-2.56 5.724c-1.51.444-3.01.923-4.495 1.449-4.753 1.755-9.329 3.963-13.904 6.137-5.37 2.689-10.726 6.017-15.754 9.363-1.212.83-2.415 1.672-3.61 2.527-.039-.364-.078-.725-.115-1.086a99.322 99.322 0 0 1-.057-13.844 267.348 267.348 0 0 1 17.459-5.904l-.003.003ZM116.08 36.817a83.072 83.072 0 0 0-3.495-4.206c1.321-.466 2.653-.913 3.995-1.33a127.451 127.451 0 0 1 2.354 7.982c.191.785.374 1.57.555 2.355a69.25 69.25 0 0 0-3.409-4.8Zm75.194 1.405a64.598 64.598 0 0 1 .489-9.336c1.101.261 2.198.546 3.291.845a74.804 74.804 0 0 0-3.78 8.491Zm81.258 195.534c4.648 1.23 10.176 3.252 13.121 7.325 1.154 1.591 1.955 3.419 2.616 5.266l.087.241c.523 1.965.586 4.01.489 6.038a43.927 43.927 0 0 1-.12 1.831c-.838 5.42-2.616 10.639-4.081 15.913-2.292 7.892-4.806 15.711-7.404 23.504-1.846 5.69-4.062 11.27-7.084 16.447a71.799 71.799 0 0 1-11.071 14.613c4.28-6.802 7.027-14.226 9.078-22.265.452-1.993-2.689-2.77-3.252-.834-2.835 9.627-7.236 18.853-13.415 26.79-3.17 3.958-7.452 9.269-12.632 10.286-2.093-4.327-.107-9.127.884-13.488.262-1.117.612-2.218.916-3.322.303-1.104.614-2.239.918-3.362a232.353 232.353 0 0 0 1.732-6.746c.539-2.258 1.03-4.523 1.444-6.802.413-2.278.748-4.578.978-6.888.092-.897.157-1.8.222-2.702.04-.583.309-1.57-.313-1.931-1.57-.934-2.46 5.371-2.92 6.514-1.533 6.404-3.204 12.777-5.106 19.081-1.115 4.416-3.032 8.824-3.587 13.365a17.65 17.65 0 0 1-1.975-2.116c-2.514-3.113-3.32-7.432-2.961-11.348 1.512-9.376 4.491-18.485 5.397-27.978-.04-1.115 1.085-5.122-.068-5.494-1.714-.502-1.779 2.062-2.266 3.158-1.711 6.89-2.99 13.888-4.805 20.755a79.052 79.052 0 0 0-.869 3.058 46.99 46.99 0 0 1-1.758-11.348c-.125-4.586.523-9.263 2.556-13.415 3.293-6.438 6.297-13.043 8.648-19.881 1.57-5.19 3.014-10.464 5.35-15.364.434-.91.9-1.81 1.402-2.692a72.147 72.147 0 0 1 2.26-3.586 107.002 107.002 0 0 1 3.281-4.665c2.399-3.246 5.078-6.521 8.947-7.944 4.871-1.845 10.429-1.322 15.361-.014Z" fill="#000"/><path d="M195.867 169.461c-.885.28-2.151.445-3.056.649-3.511.758-7.115.557-10.673.34-2.64-.207-5.284-.523-7.848-1.209-11.772-3.605-16.46-12.033-29.971-5.166a325.848 325.848 0 0 1-8.633 4.217c-2.355 1.164-4.764 2.291-7.341 2.877-3.058.597-6.186.427-9.276.23a46.74 46.74 0 0 1-6.035-.73c-1.967-.413-3.887-1.012-5.857-1.417-.539-.071-1.169-.333-1.687-.076-1.159 1.078 1.13 2.574 2.032 3.139 4.037 2.493 8.79 3.385 13.444 3.851 9.493 1.159 14.189-2.093 22.314-6.041 3.553-1.873 7.231-4.068 11.408-3.662 2.206.199 4.199 1.308 6.179 2.224 2.708 1.378 5.358 2.877 8.173 4.033 4.408 1.868 9.252 2.431 14.008 2.438 3.898 0 7.903-.295 11.443-2.064.659-.29 1.517-.842 2.181-1.114 1.745-.787.96-3.008-.805-2.519ZM174.504 181.029c-12.326 7.031-25.001 5.616-38.371 1.852-.84-.277-1.669-.589-2.501-.89-.894-.295-1.891-.69-2.817-.303a1.349 1.349 0 0 0-.667 1.774c.392.784 1.195 1.245 1.896 1.731 5.049 3.205 11.131 4.155 16.96 4.939a46.057 46.057 0 0 0 19.471-1.983c3.089-1.017 5.99-2.503 8.802-4.12 2.541-1.635 1.876-5.527-2.773-3ZM126.234 155.193c.372.131.586-.157.837-.431.683-.725 1.46-1.481 2.224-2.245.764-.764 1.549-1.569 2.307-2.354a1.26 1.26 0 0 0 .382-.835c.084-1.046-1.308-1.687-2.038-.931a29.009 29.009 0 0 0-2.409 2.807c-.502.691-2.629 3.458-1.303 3.989ZM139.469 148.177c.635-.949-.62-2.119-1.52-1.428-.832.617-1.366 1.53-1.996 2.336-1.57 2.354-4.447 5.53-4.447 8.431 0 .748.737.087.947-.261.381-.524.745-1.047 1.119-1.57 1.4-1.904 2.878-3.749 4.379-5.577.526-.633 1.052-1.261 1.518-1.931Z" fill="#000"/><path d="M116.014 151.392c1.745-1.363 3.476-2.741 5.25-4.068a1.702 1.702 0 0 0 .298-2.35 1.705 1.705 0 0 0-2.339-.381c-1.512 1.117-3.031 2.224-4.509 3.383-2.433 1.938-4.934 3.801-7.234 5.896a79.479 79.479 0 0 0-7.063 7.547c-8.13 10.606-12.499 23.387-16.373 36.033-1.031 3.17-1.706 6.433-2.582 9.645-.309 1.023-.597 2.048-.913 3.066a.35.35 0 0 0 .183.453c.322.13.468-.181.565-.424a77.052 77.052 0 0 0 3.9-9.112c4.236-11.395 7.453-23.405 14.603-33.424l.084-.12c4.216-6.3 10.113-11.558 16.13-16.144ZM137.156 157.31c.332.039.523-.317.725-.683.716-1.151 1.522-2.242 2.176-3.432.754-1.277-1.104-2.441-1.912-1.201a11.719 11.719 0 0 0-.981 1.931 8.79 8.79 0 0 0-.489 1.546c-.1.463-.246 1.093-.026 1.543a.551.551 0 0 0 .507.296ZM115.862 82.194c-3.176-1.794-7.552-2.226-10.877-.547-.63.32-1.218.715-1.753 1.175-2.603 2.281-4.306 5.813-4.625 9.242-.58 6.127 2.289 12.403 8.614 14.012 5.695 1.449 11.38-1.688 13.588-7.064 2.529-6.097 1.064-13.44-4.947-16.818Zm2.459 10.726a4.879 4.879 0 0 1-1.831 1.915 3.698 3.698 0 0 1-3.786.02c-3.217-1.896-2.265-6.869 1.214-7.847 3.566-.984 6.111 2.812 4.403 5.901v.01Z" fill="#000"/><path d="M118.331 92.922a4.877 4.877 0 0 1-1.831 1.915 3.697 3.697 0 0 1-3.786.02c-3.217-1.896-2.265-6.869 1.214-7.847 3.566-.984 6.111 2.812 4.403 5.901v.01Z" fill="#fff"/><path d="M169.403 155.9a.554.554 0 0 0 .662.311.553.553 0 0 0 .385-.623c-.204-2.987-1.51-5.755-3.349-8.081a40.256 40.256 0 0 0-1.87-2.302c-1.047-1.114-2.807.346-1.913 1.57 1.047 1.384 2.169 2.702 3.226 4.07 1.161 1.554 1.98 3.331 2.859 5.055ZM171.977 149.799c.817 1.285 1.628 2.566 2.355 3.906.214.507.677.764 1.114.523.39-.209.327-.662.283-1.096-.262-1.664-.921-3.299-2.156-4.473-.764-.845-2.155.159-1.596 1.14ZM135.911 105.542a1.224 1.224 0 0 0 1.371-.665c.314-.601.656-1.187.949-1.799.317-.667.591-1.353.861-2.038a47.409 47.409 0 0 0 2.919-12.259c.176-2.67-3.772-3.008-4.054-.36-.27 3.4-.847 6.767-1.724 10.063-.191.759-.398 1.512-.602 2.268a39.654 39.654 0 0 0-.633 3.11c-.12.712.125 1.518.913 1.68ZM162.178 151.633c.664 1.541.957 3.361 2.022 4.68 1.065.868.649-3.458.434-4.031a20.799 20.799 0 0 0-.455-1.416c-.528-1.3-2.472-.559-2.001.767ZM155.688 142.869c7.44-2.092 17.338-9.961 17.76-18.573.099-2.009-.173-3.663-.762-5.025-1.959-4.822-8.593-6.339-14.388-5.34-3.139.524-4.672.293-7.847-.081-3.493-.418-7.218-.471-10.378.683a10.09 10.09 0 0 0-6.54 8.329c-.466 3.752 1.413 6.624 3.246 9.679 3.011 4.986 12.643 12.086 18.909 10.328ZM171.912 96.417a26.474 26.474 0 0 0 1.857 5.894c.17.366.845 1.831 1.57 2.522.455.432.929.552 1.308-.107.345-.599.146-1.253 0-1.876-.167-.735-.34-1.47-.523-2.205-.343-1.47-.675-2.943-.924-4.432a126.397 126.397 0 0 1-.884-7.434c-.235-2.258-3.644-1.918-3.456.335a62.653 62.653 0 0 0 1.052 7.303Z" fill="#000"/><path d="M47.812 226.955c7.425 4.803 12.965 11.712 17.213 19.374a83.119 83.119 0 0 1 3.14 6.278c.826 1.831 1.59 3.663 2.304 5.525 2.067 5.706 3.644 11.576 5.609 17.318 2.878 8.311 6.605 16.92 5.276 25.898-.062.39-.12.785-.177 1.17-1.167-5.622-3.44-11.011-5.476-16.361-.586-1.554-1.046-2.579-1.585-4.345-.204-.667-.853-1.917-1.695-1.569-.67.261-.591 1.54-.419 2.218.523 1.904.678 3.173 1.308 5.044 2.862 8.159 6.7 16.797 5.104 25.605-.523 3.968-2.184 6.969-6.158 8.253l-.199.071a30.934 30.934 0 0 0-.311-5.193c-.67-5.352-2.755-10.357-4.735-15.327a76.069 76.069 0 0 1-2.807-9.418 18.96 18.96 0 0 0-.625-1.941 90.098 90.098 0 0 0-.353-1.012c-.092-.262-.16-.641-.414-.785a.792.792 0 0 0-.523-.042c-.586.097-.617.673-.61 1.355.016 1.523.349 2.909.73 4.382a219.229 219.229 0 0 0 3.482 12.034c1.588 4.988 3.181 10.097 3.072 15.387-.17 1.716-.448 3.725-1.832 4.895-2.877 1.608-6.833 1.203-9.373-.89-2.093-1.745-4.07-3.681-5.391-6.074-1.358-2.682-2.464-5.494-3.566-8.28-2.244-5.99-4.324-12.625-8.22-17.849-.235-.261-.502-.549-.904-.429-1.366.393.662 4.887.962 5.965 1.42 3.78 2.655 7.623 3.846 11.479a81.112 81.112 0 0 0 2.825 7.549c-.5-.371-.992-.754-1.475-1.148-5.405-4.303-8.633-10.616-11.118-16.931-3.888-9.506-5.533-19.899-9.049-29.56a80.998 80.998 0 0 0-6.116-12.416c-.913-1.491-1.831-3-2.595-4.567a21.686 21.686 0 0 1-1.805-4.91 28.34 28.34 0 0 1-.262-1.369c-1.776-11.306 6.872-13.959 15.931-18.079 2.305-.866 4.67-1.595 6.988-2.396a11.507 11.507 0 0 1 4.185-.651c1.416.059 2.809.373 4.113.926.584.237 1.154.509 1.705.816Zm224.698 6.802c4.648 1.229 10.176 3.251 13.121 7.324 1.154 1.591 1.955 3.419 2.616 5.266l.087.241c.523 1.965.586 4.01.489 6.038a43.927 43.927 0 0 1-.12 1.831c-.838 5.42-2.616 10.639-4.081 15.913-2.292 7.892-4.806 15.711-7.404 23.504-1.847 5.69-4.062 11.27-7.084 16.447a71.835 71.835 0 0 1-11.071 14.613c4.28-6.802 7.027-14.226 9.078-22.265.452-1.993-2.689-2.77-3.252-.834-2.835 9.627-7.236 18.853-13.415 26.79-3.17 3.958-7.452 9.269-12.632 10.286-2.093-4.327-.107-9.127.884-13.488.262-1.117.612-2.218.916-3.322.303-1.104.617-2.239.918-3.362a232.353 232.353 0 0 0 1.732-6.746c.539-2.258 1.03-4.523 1.444-6.802.413-2.278.751-4.578.978-6.888a89.42 89.42 0 0 0 .222-2.702c.042-.583.309-1.57-.313-1.931-1.57-.934-2.459 5.371-2.92 6.514-1.533 6.404-3.204 12.777-5.106 19.081-1.115 4.416-3.032 8.824-3.587 13.365a17.65 17.65 0 0 1-1.975-2.116c-2.514-3.113-3.32-7.432-2.961-11.348 1.512-9.376 4.491-18.485 5.397-27.978-.04-1.115 1.085-5.122-.068-5.494-1.714-.502-1.779 2.062-2.266 3.158-1.711 6.89-2.99 13.888-4.805 20.755a79.052 79.052 0 0 0-.869 3.058 46.99 46.99 0 0 1-1.758-11.348c-.125-4.586.523-9.263 2.556-13.415 3.293-6.438 6.297-13.043 8.648-19.881 1.57-5.19 3.014-10.464 5.35-15.364.434-.91.9-1.81 1.402-2.692a72.89 72.89 0 0 1 2.26-3.586 107.002 107.002 0 0 1 3.281-4.665c2.399-3.246 5.078-6.521 8.947-7.944 4.871-1.845 10.429-1.321 15.361-.013Z" fill="#F0EDB5"/></g><defs><clipPath id="clip0_213_2160"><path fill="#fff" d="M0 0h303.506v343H0z"/></clipPath></defs></svg>